<svg width="67" height="21" viewBox="0 0 67 21" fill="none" xmlns="http://www.w3.org/2000/svg">
<path d="M10.3138 9.83022L7.93467 2.90608L5.40613 9.83022H10.3138ZM6.8251 0.580249H9.22561L14.9122 16.2529H12.5863L10.9967 11.5586H4.798L3.10164 16.2529H0.925171L6.8251 0.580249ZM20.9935 4.49575C22.2808 4.49575 23.3264 4.80871 24.1301 5.43462C24.941 6.06053 25.4282 7.13809 25.5918 8.66731H23.7247C23.6109 7.96316 23.3513 7.37992 22.9459 6.9176C22.5405 6.44817 21.8896 6.21345 20.9935 6.21345C19.7701 6.21345 18.8952 6.81091 18.3689 8.00583C18.0275 8.78111 17.8568 9.73776 17.8568 10.8758C17.8568 12.0209 18.0986 12.9847 18.5823 13.7671C19.0659 14.5495 19.827 14.9406 20.8654 14.9406C21.662 14.9406 22.2915 14.6988 22.7538 14.2152C23.2233 13.7244 23.5469 13.0558 23.7247 12.2094H25.5918C25.3784 13.7244 24.8449 14.834 23.9914 15.5381C23.1379 16.2351 22.0461 16.5837 20.7161 16.5837C19.2224 16.5837 18.031 16.0396 17.142 14.9513C16.2529 13.856 15.8083 12.4903 15.8083 10.8544C15.8083 8.84868 16.2956 7.28746 17.27 6.17078C18.2444 5.05409 19.4856 4.49575 20.9935 4.49575ZM31.9185 4.49575C33.2058 4.49575 34.2514 4.80871 35.0551 5.43462C35.866 6.06053 36.3532 7.13809 36.5168 8.66731H34.6497C34.5359 7.96316 34.2763 7.37992 33.8709 6.9176C33.4655 6.44817 32.8146 6.21345 31.9185 6.21345C30.6951 6.21345 29.8202 6.81091 29.2939 8.00583C28.9525 8.78111 28.7818 9.73776 28.7818 10.8758C28.7818 12.0209 29.0236 12.9847 29.5073 13.7671C29.9909 14.5495 30.752 14.9406 31.7904 14.9406C32.587 14.9406 33.2165 14.6988 33.6788 14.2152C34.1483 13.7244 34.4719 13.0558 34.6497 12.2094H36.5168C36.3034 13.7244 35.7699 14.834 34.9164 15.5381C34.0629 16.2351 32.9711 16.5837 31.6411 16.5837C30.1474 16.5837 28.956 16.0396 28.067 14.9513C27.1779 13.856 26.7333 12.4903 26.7333 10.8544C26.7333 8.84868 27.2206 7.28746 28.195 6.17078C29.1694 5.05409 30.4106 4.49575 31.9185 4.49575ZM43.1955 4.57043C44.0064 4.57043 44.7923 4.76248 45.5534 5.14656C46.3144 5.52353 46.8941 6.0143 47.2924 6.61887C47.6765 7.19499 47.9325 7.86714 48.0606 8.6353C48.1744 9.16164 48.2313 10.0009 48.2313 11.1532H39.8562C39.8917 12.3125 40.1656 13.2443 40.6777 13.9484C41.1898 14.6455 41.9828 14.994 43.0568 14.994C44.0597 14.994 44.8599 14.6633 45.4573 14.0018C45.7988 13.6177 46.0406 13.1732 46.1828 12.6682H48.0712C48.0215 13.0878 47.8543 13.5572 47.5698 14.0765C47.2924 14.5886 46.9795 15.0082 46.6309 15.3354C46.0477 15.9044 45.3258 16.2885 44.4651 16.4876C44.0028 16.6014 43.48 16.6583 42.8968 16.6583C41.4743 16.6583 40.2687 16.1427 39.28 15.1114C38.2914 14.0729 37.797 12.6219 37.797 10.7584C37.797 8.92336 38.2949 7.43327 39.2907 6.28813C40.2865 5.143 41.5881 4.57043 43.1955 4.57043ZM46.2575 9.62751C46.1793 8.79534 45.9979 8.13031 45.7134 7.63242C45.1871 6.70778 44.3087 6.24546 43.0782 6.24546C42.1962 6.24546 41.4565 6.56553 40.859 7.20566C40.2616 7.83869 39.9451 8.64597 39.9095 9.62751H46.2575ZM55.4221 14.962C56.3183 14.962 57.0616 14.5886 57.652 13.8417C58.2494 13.0878 58.5481 11.964 58.5481 10.4704C58.5481 9.55994 58.4166 8.77756 58.1534 8.12319C57.6555 6.86426 56.7451 6.23479 55.4221 6.23479C54.0921 6.23479 53.1817 6.89982 52.6909 8.22988C52.4277 8.94115 52.2961 9.84445 52.2961 10.9398C52.2961 11.8218 52.4277 12.5721 52.6909 13.1909C53.1888 14.3716 54.0992 14.962 55.4221 14.962ZM50.4504 4.87983H52.3175V6.39482C52.7016 5.8756 53.1212 5.47374 53.5764 5.18923C54.2237 4.76248 54.9847 4.5491 55.8596 4.5491C57.1541 4.5491 58.253 5.04698 59.1563 6.04275C60.0596 7.0314 60.5112 8.44682 60.5112 10.289C60.5112 12.7784 59.8604 14.5566 58.5588 15.6235C57.7337 16.2992 56.7735 16.637 55.6782 16.637C54.8176 16.637 54.0956 16.4485 53.5124 16.0716C53.171 15.8582 52.7905 15.4919 52.3708 14.9727V20.8086H50.4504V4.87983ZM63.1465 1.63647H65.0882V4.82649H66.9126V6.39482H65.0882V13.8524C65.0882 14.2507 65.2233 14.5174 65.4936 14.6526C65.643 14.7308 65.8919 14.7699 66.2405 14.7699C66.3329 14.7699 66.4325 14.7699 66.5392 14.7699C66.6459 14.7628 66.7703 14.7522 66.9126 14.7379V16.2529C66.6921 16.3169 66.4609 16.3632 66.2191 16.3916C65.9844 16.4201 65.7283 16.4343 65.451 16.4343C64.5548 16.4343 63.9466 16.2067 63.6266 15.7515C63.3065 15.2892 63.1465 14.6917 63.1465 13.9591V6.39482H61.5995V4.82649H63.1465V1.63647Z" fill="white"/>
</svg>
