<svg width="54" height="34" viewBox="0 0 54 34" fill="none" xmlns="http://www.w3.org/2000/svg">
<path d="M51.5679 23.812H34.2319C33.6095 23.812 33.0124 23.5647 32.5723 23.1245C32.1321 22.6844 31.8853 22.0873 31.8853 21.4648C31.8853 20.8424 32.1321 20.2453 32.5723 19.8052C33.0124 19.365 33.6095 19.1182 34.2319 19.1182H51.5679C52.1903 19.1182 52.7874 19.365 53.2275 19.8052C53.6677 20.2453 53.915 20.8424 53.915 21.4648C53.915 22.0873 53.6677 22.6844 53.2275 23.1245C52.7874 23.5647 52.1903 23.812 51.5679 23.812Z" fill="#78CDC8"/>
<path d="M42.9009 32.481C42.5926 32.481 42.2873 32.4203 42.0024 32.3022C41.7176 32.1842 41.4592 32.011 41.2412 31.793C41.0233 31.5749 40.8503 31.3161 40.7324 31.0312C40.6145 30.7464 40.5541 30.4411 40.5542 30.1328V12.7969C40.5542 12.1744 40.8016 11.5774 41.2417 11.1372C41.6818 10.6971 42.2784 10.4502 42.9009 10.4502C43.5233 10.4502 44.1204 10.6971 44.5605 11.1372C45.0007 11.5774 45.248 12.1744 45.248 12.7969V30.1328C45.2482 30.4411 45.1877 30.7464 45.0698 31.0312C44.9519 31.3161 44.779 31.5749 44.561 31.793C44.3431 32.011 44.0841 32.1842 43.7993 32.3022C43.5145 32.4203 43.2092 32.481 42.9009 32.481Z" fill="#78CDC8"/>
<path d="M22.6899 11.2271L13.6089 1.62695C13.4 1.40543 13.1482 1.22903 12.8687 1.1084C12.5891 0.987763 12.2878 0.925293 11.9834 0.925293C11.679 0.925293 11.3777 0.987763 11.0981 1.1084C10.8186 1.22903 10.5668 1.40543 10.3579 1.62695L1.26807 11.2891C0.763949 11.8251 0.483054 12.5332 0.48291 13.269V31.0972C0.483175 31.8113 0.766995 32.496 1.27197 33.001C1.77695 33.506 2.46212 33.7898 3.17627 33.79H20.7881C21.5021 33.7898 22.1871 33.506 22.6919 33.001C23.1967 32.496 23.48 31.8112 23.48 31.0972V13.207C23.4791 12.4704 23.1964 11.762 22.6899 11.2271ZM11.7979 9.46777C11.3591 9.46758 10.9302 9.33765 10.5654 9.09375C10.2007 8.84985 9.91685 8.50308 9.74902 8.09766C9.5812 7.69223 9.53691 7.24627 9.62256 6.81592C9.70821 6.38557 9.91971 5.98996 10.23 5.67969C10.5403 5.36941 10.9354 5.15841 11.3657 5.07275C11.7961 4.9871 12.2425 5.0309 12.6479 5.19873C13.0534 5.36656 13.3997 5.65087 13.6436 6.01562C13.8875 6.38038 14.0179 6.80926 14.0181 7.24805C14.017 7.83561 13.7832 8.39858 13.3677 8.81396C12.9521 9.22935 12.3888 9.46307 11.8013 9.46387L11.7979 9.46777Z" fill="#78CDC8"/>
</svg>
