<svg width="36" height="27" viewBox="0 0 36 27" fill="none" xmlns="http://www.w3.org/2000/svg">
<path d="M25.479 7.40381C24.8492 7.40361 24.2333 7.59016 23.7095 7.93994C23.1858 8.28973 22.7778 8.7873 22.5367 9.36914C22.2956 9.95098 22.2322 10.5913 22.355 11.209C22.4778 11.8267 22.7808 12.394 23.2261 12.8394C23.6715 13.2847 24.2392 13.5881 24.857 13.7109C25.4747 13.8338 26.115 13.7704 26.6968 13.5293C27.2787 13.2882 27.7757 12.8802 28.1255 12.3564C28.4753 11.8327 28.6619 11.2167 28.6617 10.5869C28.6617 9.74273 28.326 8.93335 27.729 8.33643C27.1321 7.7395 26.3232 7.40381 25.479 7.40381V7.40381Z" fill="#265198"/>
<path d="M32.8936 0.916016H3.14746C2.79653 0.915884 2.44826 0.984907 2.12402 1.11914C1.79978 1.25337 1.50596 1.4501 1.25781 1.69824C1.00967 1.94639 0.812945 2.24119 0.678711 2.56543C0.544477 2.88967 0.475455 3.23696 0.475586 3.58789V24.1641C0.475455 24.515 0.544489 24.8627 0.678711 25.187C0.812933 25.5113 1.00968 25.806 1.25781 26.0542C1.50594 26.3024 1.79978 26.499 2.12402 26.6333C2.44827 26.7676 2.79648 26.8369 3.14746 26.8369H32.8936C33.2445 26.8369 33.5918 26.7676 33.916 26.6333C34.2403 26.499 34.5351 26.3024 34.7832 26.0542C35.0313 25.806 35.2281 25.5113 35.3623 25.187C35.4965 24.8627 35.5656 24.515 35.5654 24.1641V3.58984C35.5657 3.23878 35.4965 2.89131 35.3623 2.56689C35.2281 2.24248 35.0313 1.94755 34.7832 1.69922C34.5351 1.45089 34.2403 1.25403 33.916 1.11963C33.5917 0.985223 33.2446 0.916016 32.8936 0.916016V0.916016ZM33.0771 22.8711C33.0771 23.3315 32.8939 23.7731 32.5684 24.0986C32.2428 24.4242 31.8012 24.6069 31.3408 24.6069H29.626L24.626 18.375C24.5091 18.2293 24.3632 18.1098 24.1973 18.0239C24.0313 17.9381 23.8496 17.8878 23.6631 17.8765C23.4766 17.8652 23.2893 17.8928 23.1143 17.958C22.9392 18.0232 22.7801 18.1243 22.6465 18.2549L20.0977 21.207C19.9948 21.3261 19.8658 21.4204 19.7217 21.4834C19.5775 21.5464 19.4219 21.5767 19.2646 21.5713C19.1074 21.5659 18.953 21.5253 18.8135 21.4526C18.674 21.3799 18.5525 21.2767 18.458 21.1509L14.9785 16.5107C14.846 16.3415 14.6741 16.2068 14.4785 16.1177C14.283 16.0285 14.0691 15.9876 13.8545 15.9985C13.6399 16.0095 13.4315 16.072 13.2461 16.1807C13.0607 16.2893 12.9036 16.4412 12.7891 16.623L7.76172 24.6069H4.69238C4.21013 24.6067 3.74716 24.4148 3.40625 24.0737C3.06534 23.7326 2.87402 23.2703 2.87402 22.7881V5.79395C2.87402 5.17095 3.12198 4.57334 3.5625 4.13281C4.00302 3.69229 4.60064 3.44482 5.22363 3.44482H30.7236C31.3466 3.44482 31.9433 3.69229 32.3838 4.13281C32.8243 4.57334 33.0723 5.17095 33.0723 5.79395L33.0771 22.8711Z" fill="#265198"/>
</svg>
