<svg width="38" height="28" viewBox="0 0 38 28" fill="none" xmlns="http://www.w3.org/2000/svg">
<path d="M34.707 0.0751953H3.45117C3.08234 0.0751953 2.71672 0.147396 2.37598 0.288574C2.03523 0.429752 1.7256 0.637096 1.46484 0.897949C1.20408 1.1588 0.997502 1.46828 0.856445 1.80908C0.715389 2.14988 0.643424 2.51495 0.643555 2.88379V24.502C0.643424 24.8708 0.715389 25.2359 0.856445 25.5767C0.997502 25.9175 1.20408 26.2274 1.46484 26.4883C1.7256 26.7491 2.03523 26.956 2.37598 27.0972C2.71672 27.2383 3.08234 27.311 3.45117 27.311H34.707C35.076 27.3112 35.4413 27.2388 35.7822 27.0977C36.1231 26.9565 36.4334 26.7496 36.6943 26.4888C36.9553 26.2279 37.1625 25.918 37.3037 25.5771C37.4449 25.2363 37.5176 24.8709 37.5176 24.502V2.88379C37.5173 2.1387 37.2203 1.42422 36.6934 0.897461C36.1664 0.3707 35.4521 0.0751953 34.707 0.0751953V0.0751953ZM25.9658 14.748L15.5889 21.3911C15.4072 21.5137 15.1962 21.586 14.9775 21.6006C14.7588 21.6152 14.5401 21.5715 14.3438 21.4741C14.1474 21.3768 13.9802 21.2293 13.8594 21.0464C13.7385 20.8635 13.6688 20.6519 13.6562 20.4331V7.14697C13.6688 6.92814 13.7385 6.71657 13.8594 6.53369C13.9802 6.35082 14.1474 6.20329 14.3438 6.10596C14.5401 6.00862 14.7588 5.96489 14.9775 5.97949C15.1962 5.9941 15.4072 6.06639 15.5889 6.18896L25.9658 12.8311C26.1308 12.9308 26.2676 13.0713 26.3623 13.2393C26.457 13.4072 26.5068 13.5968 26.5068 13.7896C26.5068 13.9823 26.457 14.1719 26.3623 14.3398C26.2676 14.5078 26.1308 14.6483 25.9658 14.748V14.748Z" fill="#265198"/>
</svg>
