<svg width="29" height="28" viewBox="0 0 29 28" fill="none" xmlns="http://www.w3.org/2000/svg">
<path d="M25.147 16.8992H3.229C2.83472 16.9064 2.44291 16.8349 2.07654 16.689C1.71017 16.5431 1.37661 16.3258 1.09521 16.0496C0.813821 15.7733 0.590325 15.4437 0.437744 15.0801C0.285163 14.7165 0.206543 14.326 0.206543 13.9317C0.206543 13.5373 0.285163 13.1468 0.437744 12.7832C0.590325 12.4196 0.813821 12.09 1.09521 11.8137C1.37661 11.5375 1.71017 11.32 2.07654 11.1741C2.44291 11.0282 2.83472 10.9569 3.229 10.9641H25.147C25.5413 10.9569 25.9331 11.0282 26.2994 11.1741C26.6658 11.32 26.9995 11.5375 27.2809 11.8137C27.5623 12.09 27.7858 12.4196 27.9384 12.7832C28.0909 13.1468 28.1694 13.5373 28.1694 13.9317C28.1694 14.326 28.0909 14.7165 27.9384 15.0801C27.7858 15.4437 27.5623 15.7733 27.2809 16.0496C26.9995 16.3258 26.6658 16.5431 26.2994 16.689C25.9331 16.8349 25.5413 16.9064 25.147 16.8992V16.8992Z" fill="#1E1E50"/>
<path d="M14.188 27.8562C13.4008 27.8562 12.646 27.5434 12.0894 26.9868C11.5327 26.4302 11.22 25.6753 11.22 24.8882V2.96899C11.2342 2.1914 11.5532 1.45063 12.1082 0.905762C12.6631 0.360896 13.4098 0.0556641 14.1875 0.0556641C14.9652 0.0556641 15.7119 0.360896 16.2668 0.905762C16.8218 1.45063 17.1408 2.1914 17.155 2.96899V24.8882C17.1552 25.2779 17.0785 25.6638 16.9294 26.0239C16.7804 26.384 16.5619 26.7112 16.2864 26.9868C16.0109 27.2624 15.6836 27.481 15.3236 27.6301C14.9636 27.7793 14.5777 27.8562 14.188 27.8562Z" fill="#1E1E50"/>
</svg>
