<svg width="23" height="23" viewBox="0 0 23 23" fill="none" xmlns="http://www.w3.org/2000/svg">
<path d="M19.6909 13.6021H2.35498C1.73172 13.6021 1.13407 13.3543 0.693359 12.9136C0.252649 12.4729 0.00488281 11.8752 0.00488281 11.252C0.00488281 10.6287 0.252649 10.031 0.693359 9.59033C1.13407 9.14962 1.73172 8.90186 2.35498 8.90186H19.6909C20.3142 8.90186 20.9118 9.14962 21.3525 9.59033C21.7932 10.031 22.041 10.6287 22.041 11.252C22.041 11.8752 21.7932 12.4729 21.3525 12.9136C20.9118 13.3543 20.3142 13.6021 19.6909 13.6021Z" fill="#78CDC8"/>
<path d="M11.0229 22.27C10.4005 22.27 9.80343 22.0227 9.36328 21.5825C8.92313 21.1424 8.67627 20.5453 8.67627 19.9229V2.58691C8.67627 1.96445 8.92313 1.36739 9.36328 0.927246C9.80343 0.487098 10.4005 0.239746 11.0229 0.239746C11.6454 0.239746 12.2425 0.487098 12.6826 0.927246C13.1228 1.36739 13.3701 1.96445 13.3701 2.58691V19.9268C13.3688 20.5484 13.1211 21.1443 12.6812 21.5835C12.2412 22.0227 11.6446 22.2698 11.0229 22.27Z" fill="#78CDC8"/>
</svg>
