<svg width="38" height="38" viewBox="0 0 38 38" fill="none" xmlns="http://www.w3.org/2000/svg">
<path d="M35.3961 19.3152C35.2721 18.9354 35.2721 18.526 35.3961 18.1462L37.2272 12.487C37.3658 12.0577 37.347 11.5933 37.1744 11.1765C37.0018 10.7597 36.6868 10.4178 36.2853 10.2121L30.985 7.50609C30.6291 7.32468 30.3403 7.035 30.1593 6.67894L27.4532 1.37914C27.2477 0.977195 26.9059 0.661792 26.4889 0.488999C26.0718 0.316206 25.6069 0.297442 25.1774 0.436264L19.5192 2.2683C19.1392 2.39115 18.7302 2.39115 18.3502 2.2683L12.691 0.436264C12.2616 0.29771 11.7968 0.316221 11.38 0.488999C10.9632 0.661777 10.6216 0.977414 10.4161 1.37914L7.71007 6.67894C7.52822 7.0347 7.23918 7.32423 6.88341 7.50609L1.58312 10.2121C1.1814 10.4176 0.865763 10.7592 0.692985 11.176C0.520207 11.5928 0.501696 12.0576 0.64025 12.487L2.47228 18.1462C2.59513 18.5262 2.59513 18.9352 2.47228 19.3152L0.64025 24.9743C0.501964 25.4036 0.52071 25.8678 0.693473 26.2844C0.866236 26.701 1.18162 27.0428 1.58312 27.2483L6.88341 29.9553C7.23935 30.1365 7.5285 30.4253 7.71007 30.781L10.4161 36.0813C10.6218 36.4828 10.9637 36.7979 11.3805 36.9704C11.7973 37.143 12.2617 37.1618 12.691 37.0232L18.3502 35.1911C18.7302 35.0683 19.1392 35.0683 19.5192 35.1911L25.1774 37.0232C25.6068 37.1621 26.0714 37.1435 26.4884 36.9709C26.9054 36.7983 27.2476 36.483 27.4532 36.0813L30.1593 30.781C30.3403 30.4252 30.6292 30.1363 30.985 29.9553L36.2853 27.2483C36.6866 27.0427 37.0019 26.701 37.1744 26.2844C37.347 25.8678 37.3655 25.4035 37.2272 24.9743L35.3961 19.3152ZM8.95812 12.0881C8.95792 11.4603 9.14415 10.8465 9.49279 10.3244C9.84143 9.80235 10.3367 9.3954 10.9166 9.15501C11.4966 8.91463 12.1348 8.85151 12.7506 8.97386C13.3664 9.09622 13.9321 9.39866 14.3761 9.84251C14.8201 10.2864 15.1227 10.8518 15.2452 11.4675C15.3678 12.0832 15.3048 12.7215 15.0646 13.3015C14.8244 13.8815 14.4176 14.3775 13.8956 14.7263C13.3736 15.0751 12.7598 15.261 12.1319 15.261C11.2903 15.261 10.4835 14.9268 9.8883 14.3318C9.29309 13.7367 8.95839 12.9297 8.95812 12.0881ZM14.797 27.0202C14.638 27.1811 14.4493 27.309 14.2408 27.3967C14.0324 27.4844 13.8083 27.5303 13.5821 27.5315C13.356 27.5327 13.1318 27.489 12.9225 27.4035C12.7131 27.3181 12.5231 27.1921 12.3624 27.0329L10.9713 25.656C10.8105 25.497 10.6825 25.3078 10.5948 25.0993C10.5072 24.8909 10.4617 24.6673 10.4606 24.4411C10.4594 24.215 10.5029 23.9908 10.5885 23.7815C10.6741 23.5721 10.7999 23.382 10.9591 23.2214L23.359 10.6931C23.6803 10.3687 24.1177 10.1851 24.5743 10.1828C25.031 10.1806 25.4695 10.3601 25.7941 10.6814L27.1842 12.0574C27.5088 12.3786 27.6925 12.8156 27.6949 13.2722C27.6974 13.7288 27.5185 14.1678 27.1974 14.4924L14.797 27.0202ZM25.2023 29.136C24.5747 29.136 23.9614 28.95 23.4396 28.6013C22.9178 28.2526 22.5108 27.7573 22.2706 27.1775C22.0305 26.5977 21.9675 25.9595 22.09 25.344C22.2124 24.7285 22.5149 24.1632 22.9586 23.7195C23.4024 23.2757 23.9676 22.9737 24.5831 22.8513C25.1986 22.7289 25.8368 22.7913 26.4166 23.0315C26.9964 23.2716 27.4918 23.6786 27.8404 24.2004C28.1891 24.7222 28.3751 25.3356 28.3751 25.9631C28.3748 26.8047 28.0406 27.6117 27.4454 28.2068C26.8502 28.8018 26.0429 29.136 25.2013 29.136H25.2023Z" fill="#78CDC8"/>
</svg>
