<svg width="22" height="23" viewBox="0 0 22 23" fill="none" xmlns="http://www.w3.org/2000/svg">
<path d="M20.7417 11.5621C21.1438 10.9388 21.3889 10.2275 21.4556 9.48881C21.5223 8.75012 21.4089 8.00607 21.125 7.32085C20.8412 6.63562 20.3953 6.02983 19.8257 5.55473C19.2562 5.07963 18.5801 4.74965 17.855 4.59331C17.6985 3.8684 17.3682 3.19202 16.8931 2.6226C16.418 2.05318 15.8122 1.60761 15.127 1.32378C14.4418 1.03994 13.6976 0.926602 12.959 0.993209C12.2204 1.05982 11.5091 1.30427 10.8858 1.7061C10.2625 1.30403 9.55124 1.05945 8.81254 0.992721C8.07385 0.92599 7.3298 1.03942 6.64458 1.32329C5.95935 1.60715 5.35307 2.05256 4.87797 2.62212C4.40288 3.19168 4.07338 3.86827 3.91704 4.59331C3.192 4.74965 2.51541 5.07963 1.94585 5.55473C1.37629 6.02983 0.930394 6.63562 0.64653 7.32085C0.362665 8.00607 0.249232 8.75012 0.315963 9.48881C0.382695 10.2275 0.62776 10.9388 1.02983 11.5621C0.628001 12.1854 0.383547 12.8972 0.31694 13.6358C0.250332 14.3744 0.363673 15.1181 0.647506 15.8033C0.931339 16.4884 1.37691 17.0942 1.94633 17.5694C2.51576 18.0445 3.19213 18.3747 3.91704 18.5313C4.07338 19.2563 4.40288 19.9324 4.87797 20.502C5.35307 21.0716 5.95935 21.5175 6.64458 21.8013C7.3298 22.0852 8.07385 22.1986 8.81254 22.1319C9.55124 22.0652 10.2625 21.8201 10.8858 21.418C11.5091 21.8198 12.2204 22.0648 12.959 22.1314C13.6976 22.198 14.4418 22.0847 15.127 21.8008C15.8122 21.517 16.418 21.0709 16.8931 20.5015C17.3682 19.9321 17.6985 19.2562 17.855 18.5313C18.5801 18.375 19.2562 18.045 19.8257 17.5699C20.3953 17.0948 20.8412 16.4885 21.125 15.8033C21.4089 15.118 21.5223 14.3745 21.4556 13.6358C21.3889 12.8971 21.1438 12.1853 20.7417 11.5621Z" fill="#265198"/>
</svg>
