<svg width="24" height="15" viewBox="0 0 24 15" fill="none" xmlns="http://www.w3.org/2000/svg">
<path d="M3.64131 7.34033C2.97162 7.34033 2.31679 7.53859 1.75996 7.91064C1.20314 8.2827 0.769172 8.81147 0.512894 9.43018C0.256616 10.0489 0.189862 10.7299 0.320511 11.3867C0.451161 12.0435 0.77324 12.6471 1.24678 13.1206C1.72032 13.5941 2.32385 13.9162 2.98067 14.0469C3.63749 14.1775 4.3185 14.1108 4.93721 13.8545C5.55592 13.5982 6.08468 13.1642 6.45674 12.6074C6.8288 12.0506 7.02705 11.3958 7.02705 10.7261C7.02705 10.2814 6.93989 9.84098 6.76973 9.43018C6.59957 9.01937 6.34977 8.64645 6.03536 8.33203C5.72094 8.01761 5.34802 7.76831 4.93721 7.59814C4.5264 7.42798 4.08597 7.34033 3.64131 7.34033Z" fill="#265198"/>
<path d="M11.6541 14.1123C13.5241 14.1123 15.0401 12.5964 15.0401 10.7263C15.0401 8.8563 13.5241 7.34033 11.6541 7.34033C9.78403 7.34033 8.26807 8.8563 8.26807 10.7263C8.26807 12.5964 9.78403 14.1123 11.6541 14.1123Z" fill="#265198"/>
<path d="M19.6672 14.1123C21.5373 14.1123 23.0532 12.5964 23.0532 10.7263C23.0532 8.8563 21.5373 7.34033 19.6672 7.34033C17.7972 7.34033 16.2812 8.8563 16.2812 10.7263C16.2812 12.5964 17.7972 14.1123 19.6672 14.1123Z" fill="#265198"/>
<path d="M7.81715 7.001C9.68719 7.001 11.2032 5.48504 11.2032 3.615C11.2032 1.74497 9.68719 0.229004 7.81715 0.229004C5.94712 0.229004 4.43115 1.74497 4.43115 3.615C4.43115 5.48504 5.94712 7.001 7.81715 7.001Z" fill="#265198"/>
<path d="M19.216 3.61543C19.216 2.94575 19.0178 2.29091 18.6457 1.73409C18.2736 1.17726 17.7449 0.743294 17.1262 0.487015C16.5075 0.230737 15.8265 0.163983 15.1696 0.294632C14.5128 0.425282 13.9093 0.747361 13.4357 1.2209C12.9622 1.69444 12.6401 2.29797 12.5095 2.95479C12.3788 3.61161 12.4456 4.29262 12.7019 4.91133C12.9581 5.53004 13.3921 6.0588 13.9489 6.43086C14.5058 6.80292 15.1606 7.00118 15.8303 7.00118C16.2749 7.00118 16.7154 6.91401 17.1262 6.74385C17.537 6.57369 17.9099 6.3239 18.2243 6.00948C18.5387 5.69506 18.7885 5.32214 18.9587 4.91133C19.1289 4.50052 19.216 4.06009 19.216 3.61543Z" fill="#265198"/>
</svg>
