<svg width="11" height="15" viewBox="0 0 11 15" fill="none" xmlns="http://www.w3.org/2000/svg">
<path d="M2.59997 0.0561523C3.09635 0.0567384 3.57633 0.233982 3.95397 0.556152L10.2591 5.89722C10.4911 6.09436 10.6773 6.33945 10.805 6.61572C10.9328 6.89199 10.9989 7.19269 10.9989 7.49707C10.9989 7.80145 10.9328 8.10215 10.805 8.37842C10.6773 8.65469 10.4911 8.90003 10.2591 9.09717L3.95397 14.438C3.5257 14.7611 2.99009 14.9082 2.4569 14.8489C1.9237 14.7895 1.4335 14.5283 1.08678 14.1189C0.740068 13.7095 0.563141 13.1829 0.592397 12.6472C0.621653 12.1115 0.854772 11.6072 1.24401 11.238L5.66002 7.49707L1.24401 3.7561C0.9168 3.47795 0.682715 3.10622 0.573354 2.69092C0.463993 2.27562 0.484657 1.83683 0.632436 1.43359C0.780215 1.03036 1.04819 0.682075 1.40001 0.435791C1.75184 0.189507 2.17051 0.0569995 2.59997 0.0561523Z" fill="#78CDC8"/>
</svg>
