<svg width="21" height="16" viewBox="0 0 21 16" fill="none" xmlns="http://www.w3.org/2000/svg">
<path d="M20.4954 13.0791L12.0316 0.666992C11.8958 0.468173 11.7132 0.305293 11.5003 0.192871C11.2874 0.0804497 11.0506 0.0219727 10.8099 0.0219727C10.5691 0.0219727 10.3323 0.0804497 10.1194 0.192871C9.90657 0.305293 9.72392 0.468173 9.58819 0.666992L1.1253 13.0801C0.974032 13.3024 0.886273 13.5616 0.871395 13.8301C0.856516 14.0986 0.915538 14.3663 1.04132 14.604C1.1671 14.8417 1.35489 15.0405 1.58526 15.1792C1.81563 15.3179 2.08003 15.3912 2.34893 15.3911H19.2757C19.5445 15.3907 19.8083 15.3167 20.0384 15.1777C20.2685 15.0388 20.4559 14.8398 20.5814 14.6021C20.7068 14.3643 20.7654 14.097 20.7503 13.8286C20.7352 13.5602 20.6468 13.3012 20.4954 13.0791V13.0791Z" fill="#265198"/>
</svg>
