<svg width="20" height="28" viewBox="0 0 20 28" fill="none" xmlns="http://www.w3.org/2000/svg">
<path d="M15.485 27.1781C14.5937 27.1794 13.7312 26.8631 13.052 26.286L1.72498 16.691C1.30762 16.3373 0.972299 15.8969 0.74231 15.4005C0.51232 14.9041 0.393188 14.3636 0.393188 13.8165C0.393188 13.2694 0.51232 12.7289 0.74231 12.2325C0.972299 11.7361 1.30762 11.2957 1.72498 10.942L13.052 1.34705C13.8156 0.712036 14.799 0.404234 15.7883 0.490601C16.7777 0.576968 17.6929 1.05052 18.3348 1.80823C18.9768 2.56594 19.2936 3.54641 19.2163 4.5365C19.139 5.52659 18.6738 6.44622 17.922 7.09509L9.98706 13.816L17.922 20.538C18.5109 21.0367 18.9325 21.7042 19.1295 22.4503C19.3266 23.1964 19.2896 23.9852 19.0237 24.7096C18.7578 25.434 18.2759 26.0594 17.6429 26.5009C17.01 26.9424 16.2567 27.1788 15.485 27.1781V27.1781Z" fill="white"/>
</svg>
