<svg width="38" height="31" viewBox="0 0 38 31" fill="none" xmlns="http://www.w3.org/2000/svg">
<path d="M9.32495 17.115L1.80201 9.74094C1.68167 9.62229 1.52899 9.54196 1.36304 9.50998C1.1971 9.47801 1.0252 9.49581 0.869388 9.56125C0.713578 9.6267 0.580646 9.73678 0.487308 9.87766C0.39397 10.0185 0.344487 10.184 0.344974 10.353V28.276C0.345239 28.9501 0.613187 29.5964 1.08985 30.0731C1.56651 30.5498 2.21287 30.8177 2.88697 30.818H34.7781C35.4522 30.8177 36.0985 30.5498 36.5752 30.0731C37.0519 29.5964 37.3198 28.9501 37.3201 28.276V10.5549C37.3221 10.415 37.2821 10.2777 37.2053 10.1607C37.1286 10.0437 37.0186 9.95248 36.8894 9.89866C36.7602 9.84484 36.6178 9.83087 36.4807 9.85874C36.3436 9.8866 36.218 9.95494 36.1201 10.0549L29.0249 17.115H9.32495Z" fill="#95E0DB"/>
<path d="M27.2061 6.37695V1.66992C27.2061 1.37421 27.0886 1.09069 26.8795 0.881592C26.6704 0.672489 26.3869 0.554932 26.0911 0.554932H11.5692C11.2735 0.554932 10.9897 0.672489 10.7806 0.881592C10.5715 1.09069 10.4542 1.37421 10.4542 1.66992V6.37695H2.75398C2.59823 6.37717 2.4462 6.42378 2.31697 6.51074C2.18775 6.5977 2.08726 6.72115 2.0284 6.86536C1.96954 7.00956 1.95495 7.16801 1.98641 7.32056C2.01787 7.47311 2.09404 7.61277 2.20516 7.72192L9.90511 15.2679H28.4481L35.8241 7.88C35.9459 7.75659 36.0286 7.59992 36.0618 7.42969C36.0951 7.25946 36.0773 7.08327 36.0108 6.9231C35.9443 6.76292 35.8319 6.6259 35.6878 6.5293C35.5438 6.43269 35.3744 6.38077 35.201 6.38L27.2061 6.37695ZM24.378 6.37695H15.096C14.9454 6.37695 14.8009 6.43681 14.6944 6.54333C14.5879 6.64986 14.5282 6.7943 14.5282 6.94495V9.30298H13.2821V3.849C13.2818 3.79315 13.2926 3.73783 13.3138 3.68616C13.335 3.63448 13.3662 3.58744 13.4056 3.54785C13.445 3.50827 13.4917 3.47688 13.5433 3.45544C13.5949 3.43401 13.6503 3.42297 13.7061 3.42297H23.953C24.0659 3.42297 24.1743 3.46784 24.2542 3.54773C24.3341 3.62762 24.379 3.73602 24.379 3.849L24.378 6.37695Z" fill="#95E0DB"/>
</svg>
