<svg width="238" height="237" viewBox="0 0 238 237" fill="none" xmlns="http://www.w3.org/2000/svg">
<path d="M118.925 0.213013C95.5123 0.213013 72.6252 7.15565 53.1582 20.1631C33.6912 33.1705 18.5185 51.6585 9.55882 73.2891C0.59914 94.9196 -1.74512 118.721 2.82249 141.684C7.39009 164.647 18.6644 185.74 35.2197 202.295C51.775 218.85 72.8679 230.125 95.8308 234.692C118.794 239.26 142.595 236.916 164.226 227.956C185.856 218.996 204.344 203.824 217.352 184.357C230.359 164.89 237.302 142.003 237.302 118.59C237.302 87.1944 224.83 57.0848 202.63 34.8848C180.43 12.6848 150.321 0.213013 118.925 0.213013V0.213013Z" fill="#283B92"/>
<path d="M162.192 95.58H141.518C141.228 95.5799 140.943 95.4977 140.698 95.3429C140.452 95.1881 140.255 94.9669 140.13 94.705L137.588 89.391C137.319 88.8278 136.896 88.3523 136.368 88.0194C135.84 87.6865 135.228 87.51 134.604 87.51H103.247C102.623 87.5102 102.011 87.6868 101.483 88.0197C100.955 88.3525 100.532 88.8279 100.263 89.391L97.7209 94.705C97.5959 94.967 97.3992 95.1883 97.1536 95.3431C96.9079 95.498 96.6234 95.5801 96.333 95.58H92.5249V92.854C92.5249 92.048 92.2049 91.275 91.635 90.7051C91.0651 90.1352 90.2921 89.8149 89.4861 89.8149H85.115C84.3092 89.8149 83.5364 90.135 82.9666 90.7047C82.3967 91.2744 82.0762 92.0472 82.0759 92.853V95.58H75.6599C74.9703 95.58 74.3091 95.854 73.8215 96.3416C73.3339 96.8291 73.0601 97.4904 73.0601 98.1799V147.072C73.0601 147.762 73.3339 148.423 73.8215 148.91C74.3091 149.398 74.9703 149.672 75.6599 149.672H162.192C162.881 149.672 163.543 149.398 164.031 148.91C164.518 148.423 164.792 147.762 164.792 147.072V98.1799C164.792 97.4904 164.518 96.8291 164.031 96.3416C163.543 95.854 162.881 95.58 162.192 95.58ZM118.926 139.423C115.603 139.423 112.355 138.438 109.593 136.592C106.83 134.746 104.676 132.122 103.405 129.052C102.133 125.982 101.8 122.604 102.449 119.345C103.097 116.087 104.697 113.093 107.047 110.744C109.396 108.394 112.39 106.794 115.648 106.146C118.907 105.498 122.285 105.83 125.355 107.102C128.425 108.373 131.049 110.527 132.895 113.289C134.741 116.052 135.726 119.3 135.726 122.623C135.726 124.829 135.291 127.014 134.447 129.052C133.603 131.091 132.365 132.943 130.805 134.503C129.245 136.063 127.393 137.3 125.354 138.144C123.316 138.989 121.131 139.423 118.925 139.423H118.926Z" fill="white"/>
</svg>
