<svg width="23" height="20" viewBox="0 0 23 20" fill="none" xmlns="http://www.w3.org/2000/svg">
<path d="M7.89684 0.558105H5.46484V5.45811H7.89684V0.558105Z" fill="#265198"/>
<path d="M17.6498 0.558105H15.2178V5.45811H17.6498V0.558105Z" fill="#265198"/>
<path d="M18.5859 3.23535V4.82617H14.4468V3.23535H8.83301V4.82617H4.69287V3.23535H1.46094C1.14586 3.23535 0.843399 3.36021 0.620605 3.58301C0.397812 3.8058 0.272949 4.10826 0.272949 4.42334V18.1562C0.272949 18.3122 0.303566 18.4668 0.363281 18.6108C0.422996 18.7549 0.510276 18.8859 0.620605 18.9961C0.730935 19.1063 0.862219 19.1933 1.00635 19.2529C1.15048 19.3125 1.30497 19.3434 1.46094 19.3433H21.292C21.6069 19.3433 21.9086 19.2182 22.1313 18.9956C22.3541 18.773 22.4797 18.4712 22.48 18.1562V4.42334C22.4797 4.10834 22.3541 3.80623 22.1313 3.5835C21.9086 3.36076 21.607 3.23562 21.292 3.23535H18.5859ZM7.15967 16.2891H2.84277V14.189H7.15967V16.2891ZM7.15967 10.7573H2.84277V8.65723H7.15967V10.7573ZM13.7749 16.2891H9.45898V14.189H13.7749V16.2891ZM13.7749 10.7573H9.45898V8.65723H13.7749V10.7573ZM20.6021 16.2891H16.2847V14.189H20.6021V16.2891ZM20.6021 10.7573H16.2847V8.65723H20.6021V10.7573Z" fill="#265198"/>
</svg>
