<svg width="25" height="25" viewBox="0 0 25 25" fill="none" xmlns="http://www.w3.org/2000/svg">
<path d="M21.6548 0.384278H3.09766C2.40199 0.384278 1.73507 0.660436 1.24316 1.15234C0.751256 1.64425 0.474609 2.31166 0.474609 3.00732V21.564C0.474609 22.2596 0.751256 22.927 1.24316 23.4189C1.73507 23.9109 2.40199 24.187 3.09766 24.187H21.6548C22.3504 24.187 23.0179 23.9109 23.5098 23.4189C24.0017 22.927 24.2778 22.2596 24.2778 21.564V3.00732C24.278 2.66283 24.2104 2.32171 24.0786 2.00342C23.9468 1.68512 23.7534 1.39594 23.5098 1.15234C23.2662 0.90875 22.977 0.715268 22.6587 0.583496C22.3404 0.451725 21.9993 0.384146 21.6548 0.384278ZM10.8086 20.0391C7.40859 19.4801 4.44986 16.1991 6.02686 12.0991C6.70579 10.5012 7.76518 9.09359 9.11279 7.99902C9.30479 7.83802 9.61271 7.98936 9.55371 8.21436C9.34112 8.90395 9.34916 9.64233 9.57666 10.3271C9.80416 11.012 10.2398 11.6089 10.8228 12.0342C10.9228 12.1182 11.1227 12.1343 11.0737 11.8853C10.8207 10.4853 10.2527 5.80942 13.5737 3.85742C13.6033 3.8386 13.6373 3.82739 13.6724 3.8252C13.7074 3.823 13.7422 3.82976 13.7739 3.84473C13.8057 3.8597 13.8334 3.88222 13.854 3.91064C13.8746 3.93907 13.8873 3.9725 13.8916 4.00732C14.003 5.58364 14.5885 7.0893 15.5708 8.32715C16.9918 10.4041 18.0578 11.927 17.8188 14.77C17.7409 15.5916 17.4926 16.3879 17.0894 17.1079C16.6861 17.828 16.1368 18.4559 15.4771 18.9517C14.8173 19.4474 14.0612 19.7999 13.2573 19.9868C12.4535 20.1737 11.6194 20.1909 10.8086 20.0371V20.0391Z" fill="#265198"/>
</svg>
