<svg width="44" height="34" viewBox="0 0 44 34" fill="none" xmlns="http://www.w3.org/2000/svg">
<path d="M41.6 13.4751H27.9V1.54003C27.9003 1.37047 27.8608 1.20329 27.7848 1.05175C27.7087 0.900205 27.5982 0.768521 27.462 0.66747C27.3259 0.566418 27.1679 0.498867 27.0008 0.46996C26.8338 0.441052 26.6622 0.45178 26.5 0.50121L13.625 4.37108C13.34 4.45683 13.0902 4.632 12.9126 4.87084C12.735 5.10967 12.6391 5.39938 12.639 5.69701V13.4751H2.71898C2.34114 13.4749 1.96891 13.566 1.6339 13.7407C1.29889 13.9155 1.01099 14.1688 0.794911 14.4787C0.578836 14.7887 0.440982 15.1462 0.392933 15.521C0.344884 15.8958 0.388139 16.2766 0.519032 16.6311L6.359 32.4402C6.5251 32.8897 6.82511 33.2775 7.21849 33.5513C7.61188 33.825 8.07968 33.9716 8.55895 33.9712H35.759C36.2383 33.9715 36.7061 33.8248 37.0995 33.551C37.4928 33.2773 37.7928 32.8897 37.959 32.4402L43.7991 16.6311C43.93 16.2766 43.9732 15.8958 43.9252 15.521C43.8771 15.1462 43.7391 14.7887 43.5231 14.4787C43.307 14.1688 43.0192 13.9155 42.6842 13.7407C42.3492 13.566 41.9778 13.4749 41.6 13.4751ZM15.461 13.4751V7.05101C15.4611 6.968 15.4878 6.88741 15.5373 6.82079C15.5869 6.75417 15.6565 6.70517 15.736 6.68114L24.636 4.00805C24.6798 3.99484 24.7257 3.99048 24.7712 3.99511C24.8167 3.99973 24.8609 4.0134 24.9011 4.03515C24.9414 4.05689 24.9769 4.08628 25.0057 4.12182C25.0345 4.15735 25.056 4.19831 25.069 4.24218C25.0791 4.27454 25.0842 4.30812 25.084 4.34203V20.0181C25.0841 20.0749 25.073 20.1312 25.0514 20.1838C25.0297 20.2364 24.998 20.2842 24.9579 20.3245C24.9178 20.3648 24.8701 20.3968 24.8176 20.4187C24.7651 20.4406 24.7088 20.452 24.652 20.4521H22.977C22.8619 20.4521 22.7515 20.4063 22.6702 20.3249C22.5888 20.2435 22.543 20.1332 22.543 20.0181V14.187C22.543 13.9984 22.468 13.8177 22.3347 13.6843C22.2014 13.551 22.0206 13.4761 21.832 13.4761H15.464L15.461 13.4751Z" fill="#1E1E50"/>
</svg>
