<svg width="22" height="22" viewBox="0 0 22 22" fill="none" xmlns="http://www.w3.org/2000/svg">
<path d="M7.63311 0.518066H1.52111C0.83959 0.518066 0.287109 1.07055 0.287109 1.75207V7.86407C0.287109 8.54559 0.83959 9.09807 1.52111 9.09807H7.63311C8.31463 9.09807 8.86711 8.54559 8.86711 7.86407V1.75207C8.86711 1.07055 8.31463 0.518066 7.63311 0.518066Z" fill="#265198"/>
<path d="M7.63311 12.5303H1.52111C0.83959 12.5303 0.287109 13.0828 0.287109 13.7643V19.8763C0.287109 20.5578 0.83959 21.1103 1.52111 21.1103H7.63311C8.31463 21.1103 8.86711 20.5578 8.86711 19.8763V13.7643C8.86711 13.0828 8.31463 12.5303 7.63311 12.5303Z" fill="#265198"/>
<path d="M19.949 12.5303H13.837C13.1555 12.5303 12.603 13.0828 12.603 13.7643V19.8763C12.603 20.5578 13.1555 21.1103 13.837 21.1103H19.949C20.6305 21.1103 21.183 20.5578 21.183 19.8763V13.7643C21.183 13.0828 20.6305 12.5303 19.949 12.5303Z" fill="#265198"/>
<path d="M19.949 0.518066H13.837C13.1555 0.518066 12.603 1.07055 12.603 1.75207V7.86407C12.603 8.54559 13.1555 9.09807 13.837 9.09807H19.949C20.6305 9.09807 21.183 8.54559 21.183 7.86407V1.75207C21.183 1.07055 20.6305 0.518066 19.949 0.518066Z" fill="#265198"/>
</svg>
