<svg width="43" height="24" viewBox="0 0 43 24" fill="none" xmlns="http://www.w3.org/2000/svg">
<path d="M10.888 0.616211H1.203C0.650718 0.616211 0.203003 1.06393 0.203003 1.61621V6.24021C0.203003 6.7925 0.650718 7.24021 1.203 7.24021H10.888C11.4403 7.24021 11.888 6.7925 11.888 6.24021V1.61621C11.888 1.06393 11.4403 0.616211 10.888 0.616211Z" fill="#1E1E50"/>
<path d="M10.888 9.74316H1.203C0.650718 9.74316 0.203003 10.1909 0.203003 10.7432V22.6592C0.203003 23.2114 0.650718 23.6592 1.203 23.6592H10.888C11.4403 23.6592 11.888 23.2114 11.888 22.6592V10.7432C11.888 10.1909 11.4403 9.74316 10.888 9.74316Z" fill="#1E1E50"/>
<path d="M26.064 17.0352H16.379C15.8267 17.0352 15.379 17.4829 15.379 18.0352V22.6592C15.379 23.2114 15.8267 23.6592 16.379 23.6592H26.064C26.6163 23.6592 27.064 23.2114 27.064 22.6592V18.0352C27.064 17.4829 26.6163 17.0352 26.064 17.0352Z" fill="#1E1E50"/>
<path d="M26.064 0.616211H16.379C15.8267 0.616211 15.379 1.06393 15.379 1.61621V13.5322C15.379 14.0845 15.8267 14.5322 16.379 14.5322H26.064C26.6163 14.5322 27.064 14.0845 27.064 13.5322V1.61621C27.064 1.06393 26.6163 0.616211 26.064 0.616211Z" fill="#1E1E50"/>
<path d="M41.252 0.616211H31.567C31.0147 0.616211 30.567 1.06393 30.567 1.61621V6.24021C30.567 6.7925 31.0147 7.24021 31.567 7.24021H41.252C41.8043 7.24021 42.252 6.7925 42.252 6.24021V1.61621C42.252 1.06393 41.8043 0.616211 41.252 0.616211Z" fill="#1E1E50"/>
<path d="M41.252 9.74316H31.567C31.0147 9.74316 30.567 10.1909 30.567 10.7432V22.6592C30.567 23.2114 31.0147 23.6592 31.567 23.6592H41.252C41.8043 23.6592 42.252 23.2114 42.252 22.6592V10.7432C42.252 10.1909 41.8043 9.74316 41.252 9.74316Z" fill="#1E1E50"/>
</svg>
