<svg width="27" height="18" viewBox="0 0 27 18" fill="none" xmlns="http://www.w3.org/2000/svg">
<path d="M9.74316 7.81396V5.13428C9.74316 5.02819 9.70099 4.92658 9.62598 4.85156C9.55096 4.77655 9.44935 4.73438 9.34326 4.73438C9.23718 4.73438 9.13507 4.77655 9.06006 4.85156C8.98504 4.92658 8.94287 5.02819 8.94287 5.13428V8.2041C8.9464 8.31259 8.99142 8.41562 9.06836 8.49219C9.1453 8.56876 9.24842 8.61321 9.35693 8.61621H12.4922C12.5983 8.61621 12.6999 8.57404 12.7749 8.49902C12.8499 8.42401 12.8921 8.3224 12.8921 8.21631C12.8921 8.11022 12.8499 8.00812 12.7749 7.93311C12.6999 7.85809 12.5983 7.81641 12.4922 7.81641L9.74316 7.81396Z" fill="#265198"/>
<path d="M24.1519 5.4082H19.0898V2.42432C19.0898 1.84084 18.8584 1.28123 18.4458 0.868652C18.0332 0.456072 17.4736 0.224121 16.8901 0.224121H2.66113C2.07766 0.224121 1.51805 0.456072 1.10547 0.868652C0.692889 1.28123 0.460938 1.84084 0.460938 2.42432V13.897C0.460938 14.411 0.665363 14.9041 1.02881 15.2676C1.39225 15.631 1.88494 15.835 2.39893 15.835H3.37988C3.47319 16.4129 3.76961 16.9388 4.21533 17.3184C4.66106 17.6979 5.22708 17.9062 5.8125 17.9062C6.39792 17.9062 6.96443 17.6979 7.41016 17.3184C7.85588 16.9388 8.15181 16.4129 8.24512 15.835H18.4399C18.5326 16.4135 18.8285 16.9406 19.2744 17.3208C19.7203 17.701 20.2871 17.9097 20.873 17.9097C21.459 17.9097 22.0258 17.701 22.4717 17.3208C22.9176 16.9406 23.2135 16.4135 23.3062 15.835H24.1499C24.6538 15.835 25.1373 15.6351 25.4937 15.2788C25.85 14.9225 26.0503 14.439 26.0503 13.9351V7.31641C26.0513 7.06639 26.0026 6.81823 25.9077 6.58691C25.8128 6.3556 25.6734 6.14551 25.4971 5.96826C25.3207 5.79101 25.1112 5.6503 24.8804 5.5542C24.6496 5.4581 24.4019 5.40846 24.1519 5.4082ZM9.47021 12.1084C8.60971 12.1082 7.76861 11.8527 7.05322 11.3745C6.33784 10.8963 5.78034 10.2164 5.45117 9.42139C5.12201 8.62633 5.03562 7.75166 5.20361 6.90771C5.37161 6.06377 5.78648 5.28857 6.39502 4.68018C7.00356 4.07178 7.77857 3.65755 8.62256 3.48975C9.46654 3.32194 10.3412 3.40796 11.1362 3.7373C11.9312 4.06665 12.6108 4.62435 13.0889 5.33984C13.5669 6.05534 13.8223 6.89682 13.8223 7.75732C13.8212 8.91093 13.3617 10.0169 12.5454 10.832C11.7291 11.6472 10.6228 12.1045 9.46924 12.104L9.47021 12.1084Z" fill="#265198"/>
</svg>
