<svg width="45" height="44" viewBox="0 0 45 44" fill="none" xmlns="http://www.w3.org/2000/svg">
<path d="M22.5089 43.4132C34.3962 43.4132 44.0329 33.7766 44.0329 21.8892C44.0329 10.0019 34.3962 0.365234 22.5089 0.365234C10.6215 0.365234 0.984863 10.0019 0.984863 21.8892C0.984863 33.7766 10.6215 43.4132 22.5089 43.4132Z" fill="white"/>
<path d="M20.5668 30.111C20.2051 30.1111 19.8473 30.0358 19.5163 29.8897C19.1854 29.7437 18.8886 29.5303 18.6448 29.263L11.8448 21.794C11.407 21.2805 11.1859 20.6169 11.2283 19.9434C11.2707 19.27 11.5734 18.6394 12.0722 18.1849C12.5711 17.7305 13.2271 17.4878 13.9016 17.5081C14.5761 17.5285 15.2162 17.8103 15.6868 18.294L20.7788 23.885L30.8608 15.091C31.1156 14.8519 31.4159 14.6665 31.7439 14.5461C32.0719 14.4256 32.4208 14.3725 32.7698 14.39C33.1188 14.4074 33.4606 14.4949 33.775 14.6475C34.0894 14.8 34.3698 15.0143 34.5994 15.2776C34.8291 15.5409 35.0034 15.8478 35.1118 16.18C35.2203 16.5121 35.2606 16.8627 35.2305 17.2108C35.2004 17.559 35.1004 17.8974 34.9365 18.206C34.7727 18.5146 34.5483 18.787 34.2768 19.007L22.2768 29.472C21.8035 29.8858 21.1955 30.1129 20.5668 30.111Z" fill="#78CDC8"/>
</svg>
