<svg width="23" height="24" viewBox="0 0 23 24" fill="none" xmlns="http://www.w3.org/2000/svg">
<path d="M19.8521 0.875H3.02002C2.31932 0.875 1.64733 1.15345 1.15186 1.64893C0.656384 2.1444 0.37793 2.81639 0.37793 3.51709V21.3481C0.37793 22.0488 0.656384 22.7208 1.15186 23.2163C1.64733 23.7118 2.31932 23.9902 3.02002 23.9902H19.8521C20.5528 23.9902 21.2247 23.7118 21.7202 23.2163C22.2157 22.7208 22.4941 22.0488 22.4941 21.3481V3.51709C22.4941 2.81639 22.2157 2.1444 21.7202 1.64893C21.2247 1.15345 20.5528 0.875 19.8521 0.875ZM3.87793 4.71094H12.2778C12.5745 4.72331 12.855 4.85014 13.0605 5.06445C13.2661 5.27877 13.3809 5.56437 13.3809 5.86133C13.3809 6.15829 13.2661 6.4434 13.0605 6.65771C12.855 6.87203 12.5745 6.99885 12.2778 7.01123H3.87793C3.58123 6.99885 3.30077 6.87203 3.09521 6.65771C2.88966 6.4434 2.7749 6.15829 2.7749 5.86133C2.7749 5.56437 2.88966 5.27877 3.09521 5.06445C3.30077 4.85014 3.58123 4.72331 3.87793 4.71094ZM12.2778 20.541H3.87793C3.57293 20.541 3.28061 20.4203 3.06494 20.2046C2.84927 19.9889 2.72803 19.6961 2.72803 19.3911C2.72803 19.0861 2.84927 18.7938 3.06494 18.5781C3.28061 18.3625 3.57293 18.2412 3.87793 18.2412H12.2778C12.5828 18.2412 12.8756 18.3625 13.0913 18.5781C13.307 18.7938 13.4282 19.0861 13.4282 19.3911C13.4282 19.6961 13.307 19.9889 13.0913 20.2046C12.8756 20.4203 12.5828 20.541 12.2778 20.541ZM14.978 13.7773H3.87793C3.58123 13.765 3.30077 13.6381 3.09521 13.4238C2.88966 13.2095 2.7749 12.9239 2.7749 12.627C2.7749 12.33 2.88966 12.0449 3.09521 11.8306C3.30077 11.6163 3.58123 11.4894 3.87793 11.4771H14.978C15.2747 11.4894 15.5552 11.6163 15.7607 11.8306C15.9663 12.0449 16.0811 12.33 16.0811 12.627C16.0811 12.9239 15.9663 13.2095 15.7607 13.4238C15.5552 13.6381 15.2747 13.765 14.978 13.7773Z" fill="#265198"/>
</svg>
