<svg width="36" height="28" viewBox="0 0 36 28" fill="none" xmlns="http://www.w3.org/2000/svg">
<path d="M35.264 10.926L18.197 0.381104L0.841062 11.113C0.613978 11.2532 0.447553 11.4733 0.374632 11.73C0.301711 11.9867 0.327535 12.2614 0.44702 12.5L1.73205 15.0752C1.85908 15.329 2.08157 15.522 2.35083 15.6118C2.62008 15.7016 2.91399 15.6809 3.16797 15.5542C3.19597 15.5402 3.22397 15.5241 3.25097 15.5071L5.20898 14.2971V26.1802C5.20925 26.6336 5.38957 27.0683 5.7102 27.3889C6.03083 27.7095 6.46563 27.8899 6.91907 27.8901H29.474C29.9274 27.8899 30.3622 27.7095 30.6829 27.3889C31.0035 27.0683 31.1837 26.6336 31.184 26.1802V14.2991L32.97 15.3992C33.1016 15.4808 33.248 15.5356 33.4009 15.5605C33.5537 15.5855 33.71 15.5802 33.8607 15.5447C34.0115 15.5092 34.1538 15.4443 34.2794 15.3538C34.4051 15.2632 34.5116 15.1488 34.593 15.0171C34.6244 14.9666 34.6519 14.9139 34.675 14.8591L35.729 12.3911C35.8391 12.1316 35.8527 11.8412 35.7675 11.5725C35.6822 11.3038 35.5036 11.0745 35.264 10.926V10.926ZM25.679 20.4021H17.834C17.6514 20.405 17.4751 20.3354 17.3439 20.2085C17.2126 20.0816 17.1372 19.9077 17.134 19.7251V14.625C17.1375 14.4425 17.213 14.269 17.3442 14.1421C17.4754 14.0152 17.6515 13.9453 17.834 13.948H25.679C25.8614 13.9453 26.0376 14.0152 26.1688 14.1421C26.3 14.269 26.3756 14.4425 26.379 14.625V19.7251C26.3779 19.8157 26.3587 19.9053 26.3229 19.9885C26.287 20.0717 26.2351 20.1469 26.17 20.21C26.105 20.2731 26.0282 20.3227 25.944 20.356C25.8597 20.3893 25.7696 20.4056 25.679 20.4041V20.4041V20.4021Z" fill="#1E1E50"/>
</svg>
