<svg width="21" height="23" viewBox="0 0 21 23" fill="none" xmlns="http://www.w3.org/2000/svg">
<path d="M19.1157 0.219238H1.64697C1.49705 0.219238 1.34846 0.248749 1.20996 0.306152C1.07146 0.363555 0.945809 0.447653 0.839844 0.553711C0.733879 0.659769 0.649567 0.785768 0.592286 0.924316C0.535004 1.06286 0.505728 1.21141 0.50586 1.36133V21.8013C0.50586 22.1039 0.625865 22.3939 0.839844 22.6079C1.05382 22.8219 1.34436 22.9424 1.64697 22.9424H19.1157C19.4183 22.9421 19.7084 22.8218 19.9224 22.6079C20.1363 22.394 20.2566 22.1038 20.2568 21.8013V1.36133C20.257 1.21141 20.2277 1.06286 20.1704 0.924316C20.1131 0.785768 20.0288 0.659769 19.9229 0.553711C19.8169 0.447653 19.6912 0.363555 19.5527 0.306152C19.4142 0.248749 19.2656 0.219238 19.1157 0.219238ZM6.06982 19.4189C6.06982 19.62 5.98981 19.8129 5.84766 19.9551C5.7055 20.0972 5.51305 20.1772 5.31201 20.1772H3.06299C2.86195 20.1772 2.66901 20.0972 2.52686 19.9551C2.3847 19.8129 2.30469 19.62 2.30469 19.4189V17.1704C2.30456 17.0708 2.32426 16.9719 2.36231 16.8799C2.40035 16.7879 2.45595 16.7042 2.52637 16.6338C2.59678 16.5634 2.68044 16.5078 2.77246 16.4697C2.86449 16.4317 2.96341 16.412 3.06299 16.4121H5.31201C5.51305 16.4121 5.7055 16.4921 5.84766 16.6343C5.98981 16.7764 6.06982 16.9694 6.06982 17.1704V19.4189ZM6.06982 12.3892C6.06982 12.4887 6.05031 12.5873 6.01221 12.6792C5.9741 12.7711 5.91806 12.8545 5.84766 12.9248C5.77726 12.9951 5.69401 13.0509 5.60205 13.0889C5.51009 13.1269 5.41151 13.1461 5.31201 13.146H3.06299C2.96349 13.1461 2.86491 13.1269 2.77295 13.0889C2.68099 13.0509 2.59726 12.9951 2.52686 12.9248C2.45646 12.8545 2.40041 12.7711 2.36231 12.6792C2.3242 12.5873 2.30469 12.4887 2.30469 12.3892V10.1392C2.30469 10.0397 2.3242 9.94103 2.36231 9.84912C2.40041 9.75721 2.45646 9.67382 2.52686 9.60352C2.59726 9.53321 2.68099 9.47744 2.77295 9.43945C2.86491 9.40147 2.96349 9.38219 3.06299 9.38232H5.31201C5.41151 9.38219 5.51009 9.40147 5.60205 9.43945C5.69401 9.47744 5.77726 9.53321 5.84766 9.60352C5.91806 9.67382 5.9741 9.75721 6.01221 9.84912C6.05031 9.94103 6.06982 10.0397 6.06982 10.1392V12.3892ZM6.06982 5.3584C6.06982 5.55943 5.98981 5.75189 5.84766 5.89404C5.7055 6.0362 5.51305 6.11621 5.31201 6.11621H3.06299C2.86195 6.11621 2.66901 6.0362 2.52686 5.89404C2.3847 5.75189 2.30469 5.55943 2.30469 5.3584V3.10938C2.30456 3.0098 2.32426 2.91087 2.36231 2.81885C2.40035 2.72682 2.45595 2.64317 2.52637 2.57275C2.59678 2.50234 2.68044 2.44674 2.77246 2.40869C2.86449 2.37065 2.96341 2.35094 3.06299 2.35107H5.31201C5.51305 2.35107 5.7055 2.43109 5.84766 2.57324C5.98981 2.71539 6.06982 2.90834 6.06982 3.10938V5.3584ZM18.5776 18.7881C18.5784 18.8666 18.5637 18.9448 18.5342 19.0176C18.5047 19.0903 18.461 19.1561 18.4058 19.2119C18.3505 19.2677 18.2849 19.3121 18.2124 19.3423C18.1399 19.3725 18.0624 19.3882 17.9839 19.3882H8.4419C8.28381 19.3866 8.13271 19.3228 8.02148 19.2104C7.91026 19.0981 7.84765 18.9462 7.84766 18.7881V17.8013C7.84765 17.6432 7.91026 17.4913 8.02148 17.3789C8.13271 17.2666 8.28381 17.2028 8.4419 17.2012H17.9839C18.142 17.2028 18.2931 17.2666 18.4043 17.3789C18.5155 17.4913 18.5776 17.6432 18.5776 17.8013V18.7881ZM18.5776 11.7583C18.5776 11.8363 18.5626 11.9133 18.5327 11.9854C18.5029 12.0574 18.459 12.1231 18.4038 12.1782C18.3486 12.2334 18.283 12.2773 18.2109 12.3071C18.1389 12.337 18.0619 12.3521 17.9839 12.3521H8.4419C8.28436 12.3521 8.13337 12.2896 8.02197 12.1782C7.91058 12.0668 7.84766 11.9158 7.84766 11.7583V10.77C7.84766 10.6125 7.91058 10.4615 8.02197 10.3501C8.13337 10.2387 8.28436 10.1763 8.4419 10.1763H17.9839C18.0619 10.1763 18.1389 10.1913 18.2109 10.2212C18.283 10.251 18.3486 10.2949 18.4038 10.3501C18.459 10.4053 18.5029 10.4709 18.5327 10.543C18.5626 10.615 18.5776 10.692 18.5776 10.77V11.7583ZM18.5776 4.72705C18.5776 4.88515 18.5155 5.03706 18.4043 5.14941C18.2931 5.26177 18.142 5.32557 17.9839 5.32715H8.4419C8.28381 5.32557 8.13271 5.26177 8.02148 5.14941C7.91026 5.03706 7.84765 4.88515 7.84766 4.72705V3.74023C7.84765 3.58214 7.91026 3.43022 8.02148 3.31787C8.13271 3.20552 8.28381 3.14172 8.4419 3.14014H17.9839C18.142 3.14172 18.2931 3.20552 18.4043 3.31787C18.5155 3.43022 18.5776 3.58214 18.5776 3.74023V4.72705Z" fill="#265198"/>
</svg>
