<svg width="34" height="33" viewBox="0 0 34 33" fill="none" xmlns="http://www.w3.org/2000/svg">
<path d="M18.6731 18.6949L7.84692 29.7949C10.0219 31.2911 12.5315 32.2295 15.1545 32.5275C17.7776 32.8254 20.4335 32.4738 22.8887 31.5035C25.3438 30.5333 27.5227 28.9743 29.2334 26.9637C30.9441 24.9532 32.1343 22.5528 32.699 19.974C32.7594 19.7014 32.7091 19.4158 32.5591 19.1803C32.4091 18.9448 32.1716 18.7785 31.8989 18.718C31.8254 18.7013 31.7504 18.6929 31.675 18.693L18.6731 18.6949Z" fill="#95E0DB"/>
<path d="M33.071 15.7589C32.9402 12.9183 32.0539 10.1641 30.5039 7.78003C30.4448 7.69208 30.3669 7.61847 30.2756 7.5647C30.1843 7.51093 30.0821 7.47826 29.9766 7.46924C29.871 7.46022 29.7646 7.47507 29.6655 7.51257C29.5664 7.55008 29.4772 7.60926 29.4041 7.68591L27.6631 9.47193C29.2124 11.4928 30.087 13.9497 30.1631 16.495H32.3569C32.5462 16.495 32.7278 16.4199 32.8618 16.2863C32.9958 16.1526 33.0715 15.9713 33.072 15.782L33.071 15.7589Z" fill="#95E0DB"/>
<path d="M26.8311 16.495C26.9658 16.4952 27.0993 16.4689 27.2239 16.4176C27.3485 16.3663 27.4617 16.291 27.5571 16.1959C27.6526 16.1008 27.7282 15.9878 27.78 15.8634C27.8318 15.739 27.8586 15.6057 27.8589 15.4709C27.8593 15.421 27.8556 15.3713 27.8479 15.322C27.7583 14.7442 27.6184 14.1753 27.4299 13.6219C27.2483 13.0878 27.0212 12.5702 26.751 12.0749C26.633 11.8646 26.4365 11.7097 26.2043 11.6443C25.9722 11.5788 25.7234 11.6082 25.5129 11.7259C25.4356 11.7692 25.3652 11.8238 25.304 11.8879L20.8159 16.4879L26.8311 16.495Z" fill="#95E0DB"/>
<path d="M17.7461 16.4951L27.562 6.42901C27.8335 6.15248 27.9841 5.77955 27.981 5.39202C27.9778 5.0045 27.8209 4.63402 27.5449 4.36199C27.5249 4.34399 27.5061 4.32504 27.4861 4.30804C25.1514 2.29053 22.2861 0.986186 19.2314 0.550226C16.1767 0.114265 13.061 0.565082 10.2551 1.84893C7.44924 3.13278 5.07124 5.19556 3.40405 7.79205C1.73687 10.3885 0.850816 13.4094 0.851074 16.4951H17.7461Z" fill="#95E0DB"/>
<path d="M1.01392 18.6949C1.52302 22.4342 3.33217 25.8749 6.12402 28.4139L15.6021 18.6949H1.01392Z" fill="#95E0DB"/>
</svg>
