<svg width="31" height="21" viewBox="0 0 31 21" fill="none" xmlns="http://www.w3.org/2000/svg">
<path d="M26.3872 0.74805H17.8589C16.8492 0.74805 15.8809 1.14933 15.167 1.86328C14.453 2.57724 14.0522 3.5455 14.0522 4.55518V8.88916H8.83496L11.772 6.40137C12.252 5.96737 12.5445 5.36347 12.5874 4.71778C12.6303 4.07208 12.4204 3.43505 12.002 2.94141C11.5835 2.44777 10.9892 2.13625 10.3452 2.07276C9.70122 2.00926 9.05804 2.19866 8.55127 2.60108L1.05811 8.94922C0.782603 9.18326 0.561446 9.47417 0.409668 9.80225C0.25789 10.1303 0.179199 10.4876 0.179199 10.8491C0.179199 11.2106 0.25789 11.5679 0.409668 11.896C0.561446 12.2241 0.782603 12.515 1.05811 12.749L8.55127 19.0962C9.05658 19.5118 9.70483 19.7119 10.3564 19.6533C11.0081 19.5947 11.6107 19.2818 12.0337 18.7827C12.4567 18.2836 12.6661 17.6383 12.6172 16.9858C12.5683 16.3334 12.2647 15.7268 11.772 15.2964L8.83496 12.8081H19.9229C20.3369 12.8081 20.7341 12.6438 21.0269 12.3511C21.3196 12.0583 21.4839 11.6611 21.4839 11.2471V10.4473C21.4823 10.1537 21.3979 9.86633 21.2402 9.61866C21.0826 9.37098 20.8585 9.17315 20.5933 9.04737H21.3823C21.9309 9.04737 22.4567 9.26504 22.8447 9.65283C23.2327 10.0406 23.4509 10.5667 23.4512 11.1152V12.1699C23.4509 12.7185 23.2327 13.2445 22.8447 13.6323C22.4567 14.0201 21.9309 14.2383 21.3823 14.2383H14.0591V16.9312C14.0591 17.4311 14.1578 17.9259 14.3491 18.3877C14.5405 18.8495 14.8208 19.2691 15.1743 19.6226C15.5278 19.976 15.9473 20.2565 16.4092 20.4478C16.8711 20.639 17.3663 20.7374 17.8662 20.7373H26.3911C26.891 20.7374 27.3858 20.639 27.8477 20.4478C28.3095 20.2565 28.7295 19.976 29.083 19.6226C29.4365 19.2691 29.7169 18.8495 29.9082 18.3877C30.0995 17.9259 30.1982 17.4311 30.1982 16.9312V4.55713C30.1986 4.05665 30.1001 3.56107 29.9087 3.09864C29.7173 2.6362 29.4365 2.21611 29.0825 1.86231C28.7285 1.5085 28.3082 1.22779 27.8457 1.03662C27.3832 0.845462 26.8877 0.747393 26.3872 0.74805Z" fill="#265198"/>
</svg>
