<svg width="24" height="24" viewBox="0 0 24 24" fill="none" xmlns="http://www.w3.org/2000/svg">
<path d="M21.4321 14.146H3.24316C2.59007 14.146 1.96376 13.8866 1.50195 13.4248C1.04014 12.963 0.780762 12.3367 0.780762 11.6836C0.780762 11.0305 1.04014 10.4042 1.50195 9.94238C1.96376 9.48057 2.59007 9.22119 3.24316 9.22119H21.4321C22.0852 9.22119 22.7115 9.48057 23.1733 9.94238C23.6351 10.4042 23.8945 11.0305 23.8945 11.6836C23.8945 12.3367 23.6351 12.963 23.1733 13.4248C22.7115 13.8866 22.0852 14.146 21.4321 14.146V14.146Z" fill="#78CDC8"/>
<path d="M12.3369 23.2407C12.0135 23.2407 11.6933 23.177 11.3945 23.0532C11.0958 22.9294 10.8243 22.7483 10.5957 22.5195C10.3671 22.2908 10.1857 22.019 10.062 21.7202C9.93836 21.4214 9.87488 21.1012 9.87501 20.7778V2.58887C9.86841 2.26131 9.92708 1.93589 10.0479 1.63135C10.1687 1.3268 10.3493 1.04942 10.5786 0.81543C10.8079 0.581444 11.0818 0.395453 11.3838 0.268555C11.6858 0.141656 12.0098 0.0761719 12.3374 0.0761719C12.665 0.0761719 12.9895 0.141656 13.2915 0.268555C13.5936 0.395453 13.8674 0.581444 14.0967 0.81543C14.326 1.04942 14.5062 1.3268 14.627 1.63135C14.7478 1.93589 14.8069 2.26131 14.8003 2.58887V20.7778C14.8003 21.4311 14.5405 22.0576 14.0786 22.5195C13.6167 22.9814 12.9902 23.2407 12.3369 23.2407V23.2407Z" fill="#78CDC8"/>
</svg>
