<svg width="61" height="38" viewBox="0 0 61 38" fill="none" xmlns="http://www.w3.org/2000/svg">
<path d="M58.4321 14.146H40.2432C39.5901 14.146 38.9638 13.8866 38.502 13.4248C38.0401 12.963 37.7808 12.3367 37.7808 11.6836C37.7808 11.0305 38.0401 10.4042 38.502 9.94238C38.9638 9.48057 39.5901 9.22119 40.2432 9.22119H58.4321C59.0852 9.22119 59.7115 9.48057 60.1733 9.94238C60.6351 10.4042 60.8945 11.0305 60.8945 11.6836C60.8945 12.3367 60.6351 12.963 60.1733 13.4248C59.7115 13.8866 59.0852 14.146 58.4321 14.146V14.146Z" fill="#78CDC8"/>
<path d="M49.3369 23.2407C49.0135 23.2407 48.6933 23.177 48.3945 23.0532C48.0958 22.9294 47.8243 22.7483 47.5957 22.5195C47.3671 22.2908 47.1857 22.019 47.062 21.7202C46.9384 21.4214 46.8749 21.1012 46.875 20.7778V2.58887C46.8684 2.26131 46.9271 1.93589 47.0479 1.63135C47.1687 1.3268 47.3493 1.04942 47.5786 0.81543C47.8079 0.581444 48.0818 0.395453 48.3838 0.268555C48.6858 0.141656 49.0098 0.0761719 49.3374 0.0761719C49.665 0.0761719 49.9895 0.141656 50.2915 0.268555C50.5936 0.395453 50.8674 0.581444 51.0967 0.81543C51.326 1.04942 51.5062 1.3268 51.627 1.63135C51.7478 1.93589 51.8069 2.26131 51.8003 2.58887V20.7778C51.8003 21.4311 51.5405 22.0576 51.0786 22.5195C50.6167 22.9814 49.9902 23.2407 49.3369 23.2407V23.2407Z" fill="#78CDC8"/>
<path d="M39.8635 18.4077H26.923V7.13477C26.9232 7.00021 26.8968 6.86703 26.8454 6.74268C26.794 6.61832 26.7188 6.50535 26.6237 6.41016C26.5286 6.31496 26.4155 6.23951 26.2912 6.18799C26.1669 6.13647 26.0337 6.10986 25.8991 6.10986C25.7975 6.1098 25.6966 6.12457 25.5993 6.15381L13.4382 9.80908C13.1689 9.89023 12.9332 10.0556 12.7653 10.2812C12.5975 10.5069 12.5063 10.7808 12.506 11.062V18.4077H3.13641C2.77944 18.4072 2.42758 18.4932 2.11102 18.6582C1.79446 18.8232 1.52262 19.0626 1.31854 19.3555C1.11447 19.6484 0.98427 19.9862 0.939148 20.3403C0.894027 20.6944 0.935163 21.0545 1.05927 21.3892L6.57538 36.3218C6.7324 36.7463 7.01584 37.1125 7.38739 37.3711C7.75894 37.6296 8.20037 37.7684 8.65302 37.7681H34.3444C34.797 37.7679 35.2386 37.6291 35.61 37.3706C35.9815 37.1121 36.2647 36.7461 36.4221 36.3218L41.9382 21.3892C42.0618 21.0544 42.1026 20.6947 42.0573 20.3408C42.012 19.9869 41.8819 19.6492 41.6779 19.3564C41.4739 19.0637 41.2022 18.8243 40.8859 18.6592C40.5696 18.4941 40.2178 18.4077 39.861 18.4077H39.8635ZM15.1745 18.4077V12.3408C15.1744 12.2623 15.1994 12.1861 15.2463 12.123C15.2931 12.06 15.359 12.0133 15.4343 11.9907L23.84 9.46582C23.9236 9.44097 24.0138 9.45026 24.0905 9.4917C24.1672 9.53313 24.2242 9.60351 24.2492 9.68701C24.2586 9.71747 24.2634 9.7489 24.2634 9.78076V24.5879C24.2634 24.6963 24.2202 24.8001 24.1437 24.877C24.0673 24.9538 23.9636 24.9975 23.8552 24.998H22.2731C22.1644 24.998 22.0605 24.9548 21.9836 24.8779C21.9067 24.801 21.8635 24.6966 21.8635 24.5879V19.0801C21.8632 18.9019 21.7922 18.7309 21.6662 18.605C21.5402 18.479 21.3692 18.408 21.1911 18.4077H15.1745Z" fill="#78CDC8"/>
</svg>
