<svg width="38" height="30" viewBox="0 0 38 30" fill="none" xmlns="http://www.w3.org/2000/svg">
<path d="M28.9009 0.794922H8.979C6.60973 0.795187 4.33783 1.73669 2.6626 3.41211C0.987364 5.08753 0.0458984 7.35973 0.0458984 9.729V28.1699C0.0460811 28.4 0.111965 28.625 0.23584 28.8188C0.359715 29.0127 0.536437 29.1674 0.745117 29.2642C0.953797 29.3609 1.18609 29.3959 1.41406 29.3652C1.64204 29.3346 1.85652 29.2393 2.03223 29.0908L8.979 23.2178H28.9009C31.2701 23.2178 33.5424 22.2768 35.2178 20.6016C36.8932 18.9263 37.8347 16.6544 37.835 14.2852V9.72705C37.8344 7.35795 36.8932 5.08615 35.2178 3.41113C33.5424 1.73612 31.27 0.794922 28.9009 0.794922ZM14.52 14.751C14.0239 14.7512 13.539 14.6041 13.1265 14.3286C12.7139 14.0532 12.3921 13.6619 12.2021 13.2036C12.0122 12.7454 11.9624 12.241 12.0591 11.7544C12.1557 11.2678 12.3944 10.8206 12.7451 10.4697C13.0958 10.1189 13.5428 9.88006 14.0293 9.7832C14.5158 9.68635 15.0202 9.73599 15.4785 9.92578C15.9369 10.1156 16.3289 10.4371 16.6045 10.8496C16.8801 11.2621 17.0269 11.7471 17.0269 12.2432C17.027 12.5726 16.9625 12.8987 16.8364 13.2031C16.7104 13.5075 16.5255 13.7842 16.2925 14.0171C16.0595 14.25 15.783 14.4346 15.4785 14.5605C15.1741 14.6865 14.8475 14.7512 14.5181 14.751H14.52ZM21.6382 14.751C21.1421 14.7512 20.6572 14.6041 20.2446 14.3286C19.8321 14.0532 19.5103 13.6619 19.3203 13.2036C19.1303 12.7454 19.0806 12.241 19.1772 11.7544C19.2739 11.2678 19.5126 10.8206 19.8633 10.4697C20.214 10.1189 20.6609 9.88006 21.1475 9.7832C21.634 9.68635 22.1383 9.73599 22.5967 9.92578C23.055 10.1156 23.4465 10.4371 23.7222 10.8496C23.9978 11.2621 24.145 11.7471 24.145 12.2432C24.145 12.5726 24.0802 12.8988 23.9541 13.2031C23.828 13.5075 23.6432 13.7837 23.4102 14.0166C23.1772 14.2495 22.9006 14.4346 22.5962 14.5605C22.2918 14.6865 21.9657 14.7511 21.6362 14.751H21.6382ZM28.5942 14.751C28.0982 14.7512 27.6128 14.6041 27.2002 14.3286C26.7876 14.0532 26.4663 13.6619 26.2764 13.2036C26.0864 12.7454 26.0366 12.241 26.1333 11.7544C26.23 11.2678 26.4686 10.8206 26.8193 10.4697C27.17 10.1189 27.617 9.88006 28.1035 9.7832C28.59 9.68635 29.0944 9.73599 29.5527 9.92578C30.0111 10.1156 30.4026 10.4371 30.6782 10.8496C30.9538 11.2621 31.1011 11.7471 31.1011 12.2432C31.1011 12.5726 31.0363 12.8988 30.9102 13.2031C30.7841 13.5075 30.5992 13.7837 30.3662 14.0166C30.1332 14.2495 29.8566 14.4346 29.5522 14.5605C29.2478 14.6865 28.9217 14.7511 28.5923 14.751H28.5942Z" fill="#78CDC8"/>
</svg>
