<svg width="12" height="12" viewBox="0 0 12 12" fill="none" xmlns="http://www.w3.org/2000/svg">
<path d="M6.26334 0.501953C5.13037 0.501755 4.02284 0.837472 3.08073 1.4668C2.13861 2.09612 1.40404 2.9909 0.970374 4.0376C0.536711 5.08429 0.423217 6.23595 0.644202 7.34717C0.865186 8.45838 1.41045 9.47914 2.21158 10.2803C3.01272 11.0814 4.03396 11.6272 5.14518 11.8481C6.25639 12.0691 7.40805 11.9556 8.45475 11.522C9.50144 11.0883 10.3957 10.3537 11.0251 9.41162C11.6544 8.4695 11.9901 7.36198 11.9899 6.229C11.9896 4.71019 11.3861 3.25365 10.3122 2.17969C9.23821 1.10572 7.78216 0.502218 6.26334 0.501953V0.501953ZM10.0192 6.79688C10.0189 6.88873 9.98171 6.97664 9.91666 7.0415C9.85162 7.10636 9.7634 7.14307 9.67155 7.14307H3.16276C3.07116 7.1428 2.98329 7.10636 2.91862 7.0415C2.85394 6.97664 2.81803 6.88847 2.81803 6.79688V5.66113C2.81803 5.56963 2.85392 5.48169 2.91862 5.41699C2.98332 5.35229 3.07126 5.31592 3.16276 5.31592H9.67838C9.72382 5.31579 9.76819 5.32453 9.81022 5.3418C9.85225 5.35906 9.8903 5.38447 9.92252 5.4165C9.95474 5.44854 9.98118 5.48688 9.99869 5.52881C10.0162 5.57074 10.0249 5.6157 10.0251 5.66113L10.0192 6.79688Z" fill="#78CDC8"/>
</svg>
