<svg width="32" height="32" viewBox="0 0 32 32" fill="none" xmlns="http://www.w3.org/2000/svg">
<path d="M28.022 23.5361V12.3152C28.022 9.12689 26.7554 6.06917 24.501 3.8147C22.2465 1.56023 19.1888 0.293701 16.0005 0.293701C12.8122 0.293701 9.75447 1.56023 7.5 3.8147C5.24553 6.06917 3.979 9.12689 3.979 12.3152V23.5361H28.022Z" fill="#1E1E50"/>
<path d="M30.806 22.3181H1.19297C0.698679 22.3181 0.297974 22.7188 0.297974 23.2131V25.2511C0.297974 25.7454 0.698679 26.1461 1.19297 26.1461H30.806C31.3003 26.1461 31.701 25.7454 31.701 25.2511V23.2131C31.701 22.7188 31.3003 22.3181 30.806 22.3181Z" fill="#1E1E50"/>
<path d="M16 31.895C19.6473 31.895 22.604 28.9383 22.604 25.291C22.604 21.6437 19.6473 18.687 16 18.687C12.3527 18.687 9.396 21.6437 9.396 25.291C9.396 28.9383 12.3527 31.895 16 31.895Z" fill="#1E1E50"/>
</svg>
