<svg width="29" height="30" viewBox="0 0 29 30" fill="none" xmlns="http://www.w3.org/2000/svg">
<path d="M25.5298 21.7451V11.5452C25.5298 8.64701 24.3786 5.86742 22.3293 3.81812C20.28 1.76881 17.5004 0.617676 14.6023 0.617676C11.7041 0.617676 8.92479 1.76881 6.87549 3.81812C4.82618 5.86742 3.6748 8.64701 3.6748 11.5452V21.7451H25.5298Z" fill="#78CDC8"/>
<path d="M28.0601 20.6382H1.14213C0.692565 20.6382 0.328125 21.0026 0.328125 21.4522V23.3042C0.328125 23.7537 0.692565 24.1182 1.14213 24.1182H28.0601C28.5097 24.1182 28.8741 23.7537 28.8741 23.3042V21.4522C28.8741 21.0026 28.5097 20.6382 28.0601 20.6382Z" fill="#78CDC8"/>
<path d="M14.6011 29.3432C17.9165 29.3432 20.6041 26.6555 20.6041 23.3402C20.6041 20.0248 17.9165 17.3372 14.6011 17.3372C11.2858 17.3372 8.59814 20.0248 8.59814 23.3402C8.59814 26.6555 11.2858 29.3432 14.6011 29.3432Z" fill="#78CDC8"/>
</svg>
