<svg width="32" height="25" viewBox="0 0 32 25" fill="none" xmlns="http://www.w3.org/2000/svg">
<path d="M2.84424 24.584H28.9072C29.4782 24.584 30.0259 24.3574 30.4297 23.9536C30.8335 23.5498 31.0601 23.0022 31.0601 22.4312V2.90625C31.0601 2.33524 30.8335 1.78755 30.4297 1.38379C30.0259 0.980023 29.4782 0.75293 28.9072 0.75293H2.84424C2.27331 0.753195 1.72549 0.980569 1.32178 1.38428C0.918069 1.78799 0.691183 2.33532 0.690918 2.90625V22.4321C0.691183 23.003 0.918529 23.5506 1.32227 23.9541C1.726 24.3577 2.2734 24.584 2.84424 24.584ZM23.1172 4.44336L27.0059 8.14307C27.131 8.2591 27.231 8.3995 27.2998 8.55566C27.3686 8.71182 27.4051 8.88063 27.4062 9.05127V16.2871C27.405 16.4577 27.3686 16.6266 27.2998 16.7827C27.231 16.9389 27.1309 17.0792 27.0059 17.1953L23.1152 20.895C22.8569 21.1376 22.5155 21.2721 22.1611 21.271H9.59131C9.23643 21.2723 8.89451 21.1374 8.63623 20.894L4.74707 17.1943C4.62223 17.0781 4.52238 16.9374 4.45361 16.7812C4.38484 16.6251 4.34869 16.4567 4.34717 16.2861V9.05029C4.34863 8.8797 4.38484 8.71129 4.45361 8.55518C4.52239 8.39906 4.62218 8.25831 4.74707 8.14209L8.63721 4.44238C8.89522 4.19935 9.23686 4.06476 9.59131 4.06641H22.1611C22.5163 4.06523 22.8584 4.2001 23.1172 4.44336Z" fill="#265198"/>
<path d="M19.4163 15.735C21.0601 13.7396 20.7752 10.7894 18.7798 9.14558C16.7844 7.50172 13.8342 7.78668 12.1903 9.78206C10.5465 11.7774 10.8314 14.7276 12.8268 16.3715C14.8222 18.0154 17.7724 17.7304 19.4163 15.735Z" fill="#265198"/>
</svg>
