<svg width="57" height="56" viewBox="0 0 57 56" fill="none" xmlns="http://www.w3.org/2000/svg">
<path d="M28.5942 55.6269C43.9141 55.6269 56.3332 43.2078 56.3332 27.8879C56.3332 12.5681 43.9141 0.148926 28.5942 0.148926C13.2744 0.148926 0.855225 12.5681 0.855225 27.8879C0.855225 43.2078 13.2744 55.6269 28.5942 55.6269Z" fill="#315092"/>
<path d="M34.4033 24.2891C34.9044 23.915 35.3113 23.4291 35.5916 22.8702C35.872 22.3112 36.0181 21.6945 36.0182 21.0691V18.1171H37.7343C37.8419 18.1171 37.9485 18.0959 38.048 18.0547C38.1475 18.0135 38.2379 17.9531 38.3141 17.877C38.3902 17.8008 38.4506 17.7104 38.4918 17.6109C38.533 17.5114 38.5543 17.4048 38.5543 17.2971V15.7091C38.554 15.4918 38.4675 15.2835 38.3137 15.13C38.16 14.9764 37.9516 14.8901 37.7343 14.8901H19.4562C19.2389 14.8901 19.0305 14.9764 18.8768 15.13C18.723 15.2835 18.6365 15.4918 18.6362 15.7091V17.2971C18.6362 17.4048 18.6575 17.5114 18.6987 17.6109C18.7399 17.7104 18.8003 17.8008 18.8764 17.877C18.9525 17.9531 19.043 18.0135 19.1425 18.0547C19.2419 18.0959 19.3486 18.1171 19.4562 18.1171H21.1713V21.1951C21.1713 21.8488 21.3309 22.4925 21.636 23.0705C21.9411 23.6485 22.3826 24.1434 22.9222 24.5121L27.2573 27.4761C27.3526 27.5413 27.431 27.6283 27.4859 27.7298C27.5408 27.8313 27.5707 27.9445 27.5731 28.06C27.5754 28.1754 27.5501 28.2897 27.4994 28.3934C27.4486 28.4971 27.3738 28.5872 27.2812 28.6561L22.1722 32.4691C21.8613 32.7016 21.609 33.0035 21.4354 33.3507C21.2618 33.698 21.1717 34.0809 21.1722 34.4691V38.1381H19.4573C19.3496 38.138 19.243 38.1591 19.1436 38.2002C19.0441 38.2413 18.9537 38.3016 18.8775 38.3777C18.8013 38.4537 18.7409 38.5441 18.6997 38.6435C18.6585 38.7429 18.6373 38.8495 18.6373 38.9571V40.5451C18.6373 40.6528 18.6585 40.7594 18.6997 40.8589C18.7409 40.9584 18.8013 41.0488 18.8774 41.125C18.9536 41.2011 19.0439 41.2615 19.1434 41.3027C19.2429 41.3439 19.3496 41.3651 19.4573 41.3651H37.7333C37.9508 41.3651 38.1593 41.2787 38.3131 41.125C38.4669 40.9712 38.5533 40.7626 38.5533 40.5451V38.9501C38.5533 38.8425 38.5321 38.7359 38.4908 38.6365C38.4496 38.5371 38.3892 38.4467 38.313 38.3707C38.2369 38.2946 38.1465 38.2343 38.047 38.1932C37.9475 38.1521 37.8409 38.131 37.7333 38.1311H36.0173V33.8311C36.0173 33.4262 35.9185 33.0273 35.7294 32.6692C35.5403 32.3111 35.2667 32.0045 34.9323 31.7761L30.2582 28.5761C30.1627 28.5111 30.0842 28.4242 30.0291 28.3227C29.9741 28.2211 29.9441 28.1078 29.9418 27.9923C29.9394 27.8768 29.9647 27.7624 30.0156 27.6587C30.0665 27.555 30.1415 27.465 30.2343 27.3961L34.4033 24.2891Z" fill="white"/>
</svg>
