<svg width="32" height="33" viewBox="0 0 32 33" fill="none" xmlns="http://www.w3.org/2000/svg">
<path d="M16.054 14.1179C17.4452 14.1185 18.8054 13.7066 19.9625 12.9342C21.1196 12.1618 22.0216 11.0636 22.5545 9.77856C23.0875 8.49349 23.2275 7.07918 22.9566 5.7146C22.6858 4.35002 22.0164 3.09645 21.033 2.1123C20.0497 1.12816 18.7966 0.457658 17.4322 0.185667C16.0679 -0.0863229 14.6535 0.0523885 13.368 0.584227C12.0825 1.11607 10.9837 2.01718 10.2103 3.17358C9.4369 4.32999 9.02363 5.68974 9.02304 7.08093C9.02251 8.00469 9.20414 8.91958 9.55722 9.77319C9.9103 10.6268 10.428 11.4024 11.0809 12.0559C11.7338 12.7094 12.5091 13.2279 13.3624 13.5817C14.2157 13.9355 15.1303 14.1177 16.054 14.1179ZM16.054 17.911C12.4811 17.8151 8.98836 18.9796 6.18783 21.2006C3.38731 23.4215 1.45772 26.5571 0.73715 30.058C0.676609 30.308 0.665903 30.5675 0.705656 30.8217C0.745409 31.0758 0.834845 31.3197 0.96884 31.5393C1.10283 31.7589 1.27882 31.9499 1.48666 32.1016C1.6945 32.2532 1.92998 32.3624 2.18002 32.423C2.32678 32.4583 2.47708 32.4768 2.62802 32.478H29.556C29.847 32.4761 30.1339 32.4092 30.3958 32.2825C30.6577 32.1557 30.8882 31.9721 31.0702 31.7451C31.2522 31.5181 31.3811 31.2533 31.4478 30.9701C31.5146 30.6869 31.5176 30.3923 31.4561 30.1079C30.7151 26.5973 28.7696 23.4565 25.9569 21.229C23.1441 19.0015 19.641 17.8278 16.054 17.911Z" fill="#95E0DB"/>
</svg>
