<svg width="25" height="25" viewBox="0 0 25 25" fill="none" xmlns="http://www.w3.org/2000/svg">
<path d="M21.9089 14.9233H3.20898C2.53759 14.9233 1.89369 14.6566 1.41895 14.1819C0.944197 13.7071 0.67749 13.0632 0.67749 12.3918C0.67749 11.7205 0.944197 11.0766 1.41895 10.6018C1.89369 10.1271 2.53759 9.86035 3.20898 9.86035H21.9089C22.5803 9.86035 23.2242 10.1271 23.699 10.6018C24.1737 11.0766 24.4404 11.7205 24.4404 12.3918C24.4404 13.0632 24.1737 13.7071 23.699 14.1819C23.2242 14.6566 22.5803 14.9233 21.9089 14.9233Z" fill="#265198"/>
<path d="M12.5598 24.2725C12.2274 24.2726 11.8983 24.2072 11.5911 24.0801C11.2839 23.9529 11.0047 23.7665 10.7695 23.5315C10.5344 23.2965 10.348 23.0173 10.2207 22.7102C10.0934 22.4031 10.0278 22.0739 10.0278 21.7415V3.04126C10.0278 2.36986 10.2945 1.72597 10.7693 1.25122C11.244 0.776472 11.8879 0.509766 12.5593 0.509766C13.2307 0.509766 13.8746 0.776472 14.3494 1.25122C14.8241 1.72597 15.0908 2.36986 15.0908 3.04126V21.7415C15.0908 22.4127 14.8243 23.0564 14.3496 23.531C13.875 24.0057 13.2311 24.2725 12.5598 24.2725V24.2725Z" fill="#265198"/>
</svg>
