<svg width="12" height="12" viewBox="0 0 12 12" fill="none" xmlns="http://www.w3.org/2000/svg">
<path d="M5.91011 0.501954C4.77722 0.502152 3.67033 0.838209 2.72847 1.46777C1.78662 2.09734 1.05245 2.99233 0.619096 4.03906C0.18574 5.08579 0.0726907 6.23755 0.293901 7.34863C0.515111 8.45972 1.06007 9.47983 1.86128 10.2808C2.6625 11.0817 3.68372 11.6273 4.79488 11.8481C5.90604 12.069 7.05787 11.9552 8.10445 11.5215C9.15103 11.0878 10.0455 10.3537 10.6748 9.41162C11.304 8.46955 11.6398 7.3619 11.6396 6.229C11.6397 5.47672 11.491 4.73164 11.2031 4.03662C10.9152 3.3416 10.4939 2.71008 9.96187 2.17822C9.42983 1.64637 8.79762 1.22466 8.10249 0.937012C7.40737 0.649368 6.6624 0.50156 5.91011 0.501954ZM9.5107 6.79688C9.51043 6.88873 9.4732 6.97665 9.40816 7.0415C9.34311 7.10636 9.2549 7.14307 9.16304 7.14307H6.82027V9.48584C6.82027 9.57743 6.78435 9.66561 6.71968 9.73047C6.65501 9.79533 6.56713 9.83177 6.47554 9.83203H5.33687C5.24528 9.83177 5.15838 9.79533 5.09371 9.73047C5.02903 9.66561 4.99214 9.57743 4.99214 9.48584V7.14307H2.64839C2.55663 7.14307 2.46816 7.10639 2.40328 7.0415C2.33839 6.97662 2.30269 6.88864 2.30269 6.79688V5.66113C2.30269 5.61574 2.31166 5.57073 2.32906 5.52881C2.34646 5.48689 2.37113 5.44855 2.40328 5.4165C2.43542 5.38446 2.47361 5.35908 2.51558 5.3418C2.55755 5.32452 2.603 5.31579 2.64839 5.31592H4.99214V2.97217C4.99201 2.92683 5.00122 2.88176 5.01851 2.83984C5.0358 2.79793 5.06067 2.7596 5.09273 2.72754C5.12479 2.69548 5.16312 2.67012 5.20503 2.65283C5.24695 2.63554 5.29153 2.62682 5.33687 2.62695H6.47554C6.52085 2.62695 6.56552 2.63598 6.60738 2.65332C6.64923 2.67066 6.68667 2.69599 6.71871 2.72803C6.75074 2.76006 6.77656 2.79799 6.7939 2.83984C6.81124 2.8817 6.82027 2.92686 6.82027 2.97217V5.31592H9.16304C9.20848 5.31579 9.25382 5.32453 9.29585 5.3418C9.33788 5.35906 9.37594 5.38447 9.40816 5.4165C9.44038 5.44854 9.46584 5.48688 9.48335 5.52881C9.50086 5.57074 9.51057 5.6157 9.5107 5.66113V6.79688Z" fill="#78CDC8"/>
</svg>
