<svg width="22" height="29" viewBox="0 0 22 29" fill="none" xmlns="http://www.w3.org/2000/svg">
<path d="M20.5312 10.1123L12.2241 1.33008C12.033 1.12761 11.8026 0.966202 11.5469 0.855957C11.2912 0.745712 11.0153 0.688965 10.7368 0.688965C10.4584 0.688965 10.1829 0.745712 9.92725 0.855957C9.67155 0.966202 9.44115 1.12761 9.25 1.33008L0.935059 10.1689C0.474011 10.6589 0.217446 11.3063 0.217285 11.979V25.8901C0.217285 26.5434 0.476574 27.1699 0.938477 27.6318C1.40038 28.0937 2.02695 28.353 2.68018 28.353H18.791C19.4442 28.353 20.0708 28.0937 20.5327 27.6318C20.9946 27.1699 21.2539 26.5434 21.2539 25.8901V11.9243C21.2529 11.2502 20.9946 10.6019 20.5312 10.1123V10.1123ZM8.53711 6.47217C8.53711 6.07043 8.65618 5.67777 8.87939 5.34375C9.10261 5.00973 9.41984 4.7494 9.79102 4.5957C10.1622 4.44201 10.5708 4.40202 10.9648 4.48047C11.3588 4.55892 11.7204 4.75248 12.0044 5.03662C12.2884 5.32076 12.4818 5.68262 12.5601 6.07666C12.6383 6.4707 12.5982 6.8789 12.4443 7.25C12.2905 7.6211 12.0299 7.93857 11.6958 8.16162C11.3617 8.38467 10.9686 8.50362 10.5669 8.50342C10.3002 8.50342 10.0364 8.45071 9.79004 8.34863C9.54368 8.24655 9.31986 8.09681 9.13135 7.9082C8.94283 7.71959 8.79336 7.49592 8.69141 7.24951C8.58945 7.00311 8.53698 6.73884 8.53711 6.47217V6.47217ZM19.043 20.9521C19.043 21.194 18.9469 21.4261 18.7759 21.5972C18.6048 21.7682 18.3727 21.8643 18.1309 21.8643H10.0713C9.95152 21.8643 9.83282 21.8408 9.72217 21.7949C9.61152 21.7491 9.51096 21.6819 9.42627 21.5972C9.34158 21.5125 9.27435 21.4119 9.22852 21.3013C9.18268 21.1906 9.15918 21.0719 9.15918 20.9521V20.895C9.15905 20.7752 9.18224 20.6566 9.22803 20.5459C9.27381 20.4352 9.34107 20.3347 9.42578 20.25C9.51049 20.1653 9.61097 20.098 9.72168 20.0522C9.83239 20.0065 9.95149 19.9833 10.0713 19.9834H18.1309C18.2507 19.9833 18.3693 20.0065 18.48 20.0522C18.5907 20.098 18.6917 20.1653 18.7764 20.25C18.8611 20.3347 18.9283 20.4352 18.9741 20.5459C19.0199 20.6566 19.0431 20.7752 19.043 20.895V20.9521ZM19.043 16.4932C19.043 16.735 18.9469 16.9672 18.7759 17.1382C18.6048 17.3092 18.3727 17.4053 18.1309 17.4053H10.0713C9.95152 17.4053 9.83282 17.3818 9.72217 17.3359C9.61152 17.2901 9.51096 17.2229 9.42627 17.1382C9.34158 17.0535 9.27435 16.9529 9.22852 16.8423C9.18268 16.7316 9.15918 16.6129 9.15918 16.4932V16.436C9.15918 16.3163 9.18268 16.1981 9.22852 16.0874C9.27435 15.9768 9.34158 15.8762 9.42627 15.7915C9.51096 15.7068 9.61152 15.6396 9.72217 15.5938C9.83282 15.5479 9.95152 15.5244 10.0713 15.5244H18.1309C18.3727 15.5244 18.6048 15.6205 18.7759 15.7915C18.9469 15.9625 19.043 16.1942 19.043 16.436V16.4932Z" fill="#265198"/>
</svg>
