<svg width="44" height="44" viewBox="0 0 44 44" fill="none" xmlns="http://www.w3.org/2000/svg">
<path d="M21.5518 43.4132C33.4392 43.4132 43.0758 33.7766 43.0758 21.8892C43.0758 10.0019 33.4392 0.365234 21.5518 0.365234C9.66446 0.365234 0.027832 10.0019 0.027832 21.8892C0.027832 33.7766 9.66446 43.4132 21.5518 43.4132Z" fill="white"/>
<path d="M27.011 31.9731L24.67 30.0821C24.5407 29.9762 24.3777 29.9202 24.2106 29.924C24.0435 29.9279 23.8834 29.9914 23.759 30.1031L21.403 32.1941C21.2699 32.272 21.1189 32.3144 20.9646 32.3172C20.8103 32.32 20.6579 32.2831 20.522 32.2101L18.049 30.1031C17.9282 30.0001 17.7762 29.941 17.6176 29.9352C17.4589 29.9293 17.303 29.9772 17.175 30.0711L14.714 31.8711C14.5884 31.9492 14.4442 31.9924 14.2963 31.996C14.1484 31.9996 14.0022 31.9636 13.8729 31.8916C13.7436 31.8197 13.636 31.7145 13.5611 31.5869C13.4862 31.4593 13.4468 31.314 13.447 31.1661V13.4281C13.447 12.9382 13.6416 12.4684 13.988 12.122C14.3344 11.7757 14.8042 11.5811 15.294 11.5811H26.409C26.8989 11.5811 27.3686 11.7757 27.715 12.122C28.0614 12.4684 28.256 12.9382 28.256 13.4281V31.2551C28.2559 31.4007 28.2174 31.5437 28.1445 31.6698C28.0716 31.7958 27.9669 31.9005 27.8407 31.9733C27.7145 32.046 27.5715 32.0843 27.4258 32.0843C27.2802 32.0842 27.1371 32.0459 27.011 31.9731Z" fill="#78CDC8"/>
</svg>
