<svg width="23" height="19" viewBox="0 0 23 19" fill="none" xmlns="http://www.w3.org/2000/svg">
<path d="M18.074 18.0181H3.11305C2.52815 18.0178 1.96733 17.7853 1.55384 17.3716C1.14035 16.9579 0.90797 16.3969 0.90797 15.812V3.14722C0.901718 2.85363 0.954239 2.56163 1.06227 2.28857C1.17029 2.01552 1.3317 1.76672 1.53712 1.55688C1.74254 1.34705 1.98774 1.18047 2.25843 1.06665C2.52913 0.952833 2.81989 0.894043 3.11354 0.894043C3.40718 0.894043 3.69782 0.952833 3.96852 1.06665C4.23921 1.18047 4.48453 1.34705 4.68995 1.55688C4.89537 1.76672 5.05678 2.01552 5.16481 2.28857C5.27283 2.56163 5.32523 2.85363 5.31898 3.14722V13.6072H18.074C18.6589 13.6072 19.2199 13.8396 19.6336 14.2532C20.0472 14.6668 20.2796 15.2276 20.2796 15.8125C20.2796 16.3974 20.0472 16.9585 19.6336 17.3721C19.2199 17.7857 18.6589 18.0181 18.074 18.0181V18.0181Z" fill="#78CDC8"/>
<path d="M8.92814 10.667C8.55026 10.667 8.18128 10.553 7.86943 10.3396C7.55757 10.1262 7.31745 9.8234 7.18058 9.47118C7.04372 9.11896 7.01639 8.73369 7.10234 8.36571C7.18828 7.99773 7.38343 7.66433 7.66215 7.40917L11.0622 4.29808C11.4081 3.9813 11.8601 3.80565 12.3291 3.80565C12.7982 3.80565 13.2503 3.9813 13.5962 4.29808L15.6442 6.17699L19.5552 2.37206C19.9136 2.03538 20.3898 1.85291 20.8814 1.864C21.373 1.87509 21.8405 2.07889 22.1833 2.43139C22.5261 2.78389 22.7167 3.25684 22.714 3.74852C22.7114 4.24021 22.5158 4.71124 22.1692 5.06005L16.9882 10.0991C16.6452 10.433 16.1874 10.6231 15.7088 10.6301C15.2301 10.6372 14.767 10.4608 14.4142 10.1372L12.3272 8.22216L10.1972 10.1731C9.85125 10.4913 9.39818 10.6676 8.92814 10.667V10.667Z" fill="#78CDC8"/>
</svg>
