<svg width="145" height="136" viewBox="0 0 145 136" fill="none" xmlns="http://www.w3.org/2000/svg">
<path d="M143.883 77.9242C140.256 57.5242 123.873 42.6442 102.617 39.5692C87.3658 37.3642 75.956 41.1372 71.64 43.2392L69.8309 44.9692C69.5163 45.6358 69.2006 46.3002 68.8839 46.9622V133.629C69.3709 133.705 69.849 133.785 70.348 133.856C87.357 136.298 116.348 133.313 132.371 115.281C138.994 107.825 146.864 94.7002 143.883 77.9242Z" fill="#78CDC8"/>
<path d="M74.764 134.732C89.713 132.586 99.317 128.523 106.576 121.75C109.562 118.964 110.726 116.682 111.1 115.05C111.249 114.495 111.28 113.914 111.191 113.346C111.103 112.778 110.897 112.234 110.586 111.75C107.386 106.456 86.7698 75.0682 71.5648 42.8582C67.2978 41.0232 56.9279 37.1972 42.1979 39.5792C18.5629 43.4012 2.9069 58.7792 0.810899 79.5882C-1.0101 97.6732 5.48588 108.462 12.1709 115.988C28.3329 134.184 57.596 137.2 74.764 134.732Z" fill="#265198"/>
<path d="M71.5638 42.8581L48.264 0.110107C54.9165 0.49297 61.422 2.22186 67.3868 5.19211C72.218 7.63676 76.2507 11.41 79.0109 16.0681C80.1824 18.5075 80.8577 21.1554 80.9974 23.8579C81.1372 26.5605 80.7386 29.2639 79.8248 31.8111C77.6178 38.2641 71.5638 42.8581 71.5638 42.8581Z" fill="#265198"/>
<path d="M110.583 111.75L71.5638 42.8582C65.0416 46.3497 59.3923 51.2691 55.037 57.2491C52.189 61.09 50.1613 65.4755 49.0799 70.1331C47.9668 74.421 47.8594 78.908 48.766 83.2442C49.3757 86.5627 50.5724 89.7459 52.2999 92.6441C60.0489 105.816 76.8468 110.278 90.0638 110.939C96.8378 111.278 99.7689 110.69 103.437 110.553C104.983 110.456 106.535 110.497 108.074 110.675C108.85 110.772 109.594 111.043 110.251 111.468C110.368 111.554 110.479 111.648 110.583 111.75Z" fill="#0098B1"/>
</svg>
