<svg width="68" height="26" viewBox="0 0 68 26" fill="none" xmlns="http://www.w3.org/2000/svg">
<path d="M10.3138 13.8302L7.93467 6.90608L5.40613 13.8302H10.3138ZM6.8251 4.58025H9.22561L14.9122 20.2529H12.5863L10.9967 15.5586H4.798L3.10164 20.2529H0.925171L6.8251 4.58025ZM20.9935 8.49575C22.2808 8.49575 23.3264 8.80871 24.1301 9.43462C24.941 10.0605 25.4282 11.1381 25.5918 12.6673H23.7247C23.6109 11.9632 23.3513 11.3799 22.9459 10.9176C22.5405 10.4482 21.8896 10.2135 20.9935 10.2135C19.7701 10.2135 18.8952 10.8109 18.3689 12.0058C18.0275 12.7811 17.8568 13.7378 17.8568 14.8758C17.8568 16.0209 18.0986 16.9847 18.5823 17.7671C19.0659 18.5495 19.827 18.9406 20.8654 18.9406C21.662 18.9406 22.2915 18.6988 22.7538 18.2152C23.2233 17.7244 23.5469 17.0558 23.7247 16.2094H25.5918C25.3784 17.7244 24.8449 18.834 23.9914 19.5381C23.1379 20.2351 22.0461 20.5837 20.7161 20.5837C19.2224 20.5837 18.031 20.0396 17.142 18.9513C16.2529 17.856 15.8083 16.4903 15.8083 14.8544C15.8083 12.8487 16.2956 11.2875 17.27 10.1708C18.2444 9.05409 19.4856 8.49575 20.9935 8.49575ZM31.9185 8.49575C33.2058 8.49575 34.2514 8.80871 35.0551 9.43462C35.866 10.0605 36.3532 11.1381 36.5168 12.6673H34.6497C34.5359 11.9632 34.2763 11.3799 33.8709 10.9176C33.4655 10.4482 32.8146 10.2135 31.9185 10.2135C30.6951 10.2135 29.8202 10.8109 29.2939 12.0058C28.9525 12.7811 28.7818 13.7378 28.7818 14.8758C28.7818 16.0209 29.0236 16.9847 29.5073 17.7671C29.9909 18.5495 30.752 18.9406 31.7904 18.9406C32.587 18.9406 33.2165 18.6988 33.6788 18.2152C34.1483 17.7244 34.4719 17.0558 34.6497 16.2094H36.5168C36.3034 17.7244 35.7699 18.834 34.9164 19.5381C34.0629 20.2351 32.9711 20.5837 31.6411 20.5837C30.1474 20.5837 28.956 20.0396 28.067 18.9513C27.1779 17.856 26.7333 16.4903 26.7333 14.8544C26.7333 12.8487 27.2206 11.2875 28.195 10.1708C29.1694 9.05409 30.4106 8.49575 31.9185 8.49575ZM43.1955 8.57043C44.0064 8.57043 44.7923 8.76248 45.5534 9.14656C46.3144 9.52353 46.8941 10.0143 47.2924 10.6189C47.6765 11.195 47.9325 11.8671 48.0606 12.6353C48.1744 13.1616 48.2313 14.0009 48.2313 15.1532H39.8562C39.8917 16.3125 40.1656 17.2443 40.6777 17.9484C41.1898 18.6455 41.9828 18.994 43.0568 18.994C44.0597 18.994 44.8599 18.6633 45.4573 18.0018C45.7988 17.6177 46.0406 17.1732 46.1828 16.6682H48.0712C48.0215 17.0878 47.8543 17.5572 47.5698 18.0765C47.2924 18.5886 46.9795 19.0082 46.6309 19.3354C46.0477 19.9044 45.3258 20.2885 44.4651 20.4876C44.0028 20.6014 43.48 20.6583 42.8968 20.6583C41.4743 20.6583 40.2687 20.1427 39.28 19.1114C38.2914 18.0729 37.797 16.6219 37.797 14.7584C37.797 12.9234 38.2949 11.4333 39.2907 10.2881C40.2865 9.143 41.5881 8.57043 43.1955 8.57043ZM46.2575 13.6275C46.1793 12.7953 45.9979 12.1303 45.7134 11.6324C45.1871 10.7078 44.3087 10.2455 43.0782 10.2455C42.1962 10.2455 41.4565 10.5655 40.859 11.2057C40.2616 11.8387 39.9451 12.646 39.9095 13.6275H46.2575ZM55.4221 18.962C56.3183 18.962 57.0616 18.5886 57.652 17.8417C58.2494 17.0878 58.5481 15.964 58.5481 14.4704C58.5481 13.5599 58.4166 12.7776 58.1534 12.1232C57.6555 10.8643 56.7451 10.2348 55.4221 10.2348C54.0921 10.2348 53.1817 10.8998 52.6909 12.2299C52.4277 12.9411 52.2961 13.8444 52.2961 14.9398C52.2961 15.8218 52.4277 16.5721 52.6909 17.1909C53.1888 18.3716 54.0992 18.962 55.4221 18.962ZM50.4504 8.87983H52.3175V10.3948C52.7016 9.8756 53.1212 9.47374 53.5764 9.18923C54.2237 8.76248 54.9847 8.5491 55.8596 8.5491C57.1541 8.5491 58.253 9.04698 59.1563 10.0427C60.0596 11.0314 60.5112 12.4468 60.5112 14.289C60.5112 16.7784 59.8604 18.5566 58.5588 19.6235C57.7337 20.2992 56.7735 20.637 55.6782 20.637C54.8176 20.637 54.0956 20.4485 53.5124 20.0716C53.171 19.8582 52.7905 19.4919 52.3708 18.9727V24.8086H50.4504V8.87983ZM63.1465 5.63647H65.0882V8.82649H66.9126V10.3948H65.0882V17.8524C65.0882 18.2507 65.2233 18.5174 65.4936 18.6526C65.643 18.7308 65.8919 18.7699 66.2405 18.7699C66.3329 18.7699 66.4325 18.7699 66.5392 18.7699C66.6459 18.7628 66.7703 18.7522 66.9126 18.7379V20.2529C66.6921 20.3169 66.4609 20.3632 66.2191 20.3916C65.9844 20.4201 65.7283 20.4343 65.451 20.4343C64.5548 20.4343 63.9466 20.2067 63.6266 19.7515C63.3065 19.2892 63.1465 18.6917 63.1465 17.9591V10.3948H61.5995V8.82649H63.1465V5.63647Z" fill="white"/>
</svg>
