<svg width="22" height="21" viewBox="0 0 22 21" fill="none" xmlns="http://www.w3.org/2000/svg">
<path d="M7.63409 0.0732422H1.52209C0.840567 0.0732422 0.288086 0.625723 0.288086 1.30724V7.41924C0.288086 8.10076 0.840567 8.65324 1.52209 8.65324H7.63409C8.31561 8.65324 8.86809 8.10076 8.86809 7.41924V1.30724C8.86809 0.625723 8.31561 0.0732422 7.63409 0.0732422Z" fill="#265198"/>
<path d="M7.63409 12.085H1.52209C0.840567 12.085 0.288086 12.6374 0.288086 13.319V19.431C0.288086 20.1125 0.840567 20.665 1.52209 20.665H7.63409C8.31561 20.665 8.86809 20.1125 8.86809 19.431V13.319C8.86809 12.6374 8.31561 12.085 7.63409 12.085Z" fill="#265198"/>
<path d="M19.949 12.085H13.837C13.1555 12.085 12.603 12.6374 12.603 13.319V19.431C12.603 20.1125 13.1555 20.665 13.837 20.665H19.949C20.6305 20.665 21.183 20.1125 21.183 19.431V13.319C21.183 12.6374 20.6305 12.085 19.949 12.085Z" fill="#265198"/>
<path d="M19.949 0.0732422H13.837C13.1555 0.0732422 12.603 0.625723 12.603 1.30724V7.41924C12.603 8.10076 13.1555 8.65324 13.837 8.65324H19.949C20.6305 8.65324 21.183 8.10076 21.183 7.41924V1.30724C21.183 0.625723 20.6305 0.0732422 19.949 0.0732422Z" fill="#265198"/>
</svg>
