<svg width="45" height="31" viewBox="0 0 45 31" fill="none" xmlns="http://www.w3.org/2000/svg">
<path d="M8.1792 9.38916V2.15918C8.16918 1.77398 8.0089 1.40782 7.73291 1.13892C7.45692 0.870011 7.08699 0.719482 6.70166 0.719482C6.31633 0.719482 5.94616 0.870011 5.67017 1.13892C5.39417 1.40782 5.23414 1.77398 5.22412 2.15918V9.38818C3.92877 9.71222 2.77894 10.4599 1.95728 11.5125C1.13561 12.565 0.689209 13.8618 0.689209 15.197C0.689209 16.5323 1.13561 17.8293 1.95728 18.8818C2.77894 19.9344 3.92877 20.6821 5.22412 21.0061V29.1062C5.23414 29.4914 5.39417 29.8573 5.67017 30.1262C5.94616 30.3951 6.31633 30.5457 6.70166 30.5457C7.08699 30.5457 7.45692 30.3951 7.73291 30.1262C8.0089 29.8573 8.16918 29.4914 8.1792 29.1062V21.0061C9.47476 20.6825 10.6249 19.935 11.4468 18.8826C12.2687 17.8301 12.7151 16.5329 12.7151 15.1975C12.7151 13.8621 12.2687 12.5652 11.4468 11.5127C10.6249 10.4602 9.47476 9.71281 8.1792 9.38916V9.38916ZM6.70117 19.3091C5.8879 19.3091 5.09272 19.068 4.4165 18.6162C3.74029 18.1644 3.21333 17.5221 2.9021 16.7708C2.59087 16.0194 2.50931 15.1924 2.66797 14.3948C2.82663 13.5971 3.21838 12.8646 3.79346 12.2896C4.36853 11.7145 5.10128 11.3227 5.89893 11.1641C6.69658 11.0054 7.52329 11.087 8.27466 11.3982C9.02603 11.7094 9.66828 12.2364 10.1201 12.9126C10.5719 13.5888 10.813 14.3837 10.813 15.197C10.813 16.2876 10.3798 17.3336 9.60864 18.1047C8.83749 18.8759 7.79174 19.3091 6.70117 19.3091V19.3091Z" fill="#79CCC9"/>
<path d="M23.8301 14.8901V2.15601C23.8301 1.76402 23.6744 1.38826 23.3972 1.11108C23.12 0.833905 22.744 0.678223 22.3521 0.678223C21.9601 0.678223 21.5841 0.833905 21.3069 1.11108C21.0297 1.38826 20.874 1.76402 20.874 2.15601V14.8872C19.5785 15.2109 18.4283 15.9583 17.6064 17.0107C16.7845 18.0632 16.3381 19.3602 16.3381 20.6956C16.3381 22.0309 16.7845 23.3281 17.6064 24.3806C18.4283 25.4331 19.5785 26.1805 20.874 26.5042V29.104C20.874 29.496 21.0297 29.872 21.3069 30.1492C21.5841 30.4263 21.9601 30.582 22.3521 30.582C22.744 30.582 23.12 30.4263 23.3972 30.1492C23.6744 29.872 23.8301 29.496 23.8301 29.104V26.5042C25.1256 26.1805 26.2758 25.4331 27.0977 24.3806C27.9196 23.3281 28.366 22.0309 28.366 20.6956C28.366 19.3602 27.9196 18.0632 27.0977 17.0107C26.2758 15.9583 25.1256 15.2109 23.8301 14.8872V14.8901ZM22.3521 24.811C21.5388 24.811 20.7438 24.57 20.0676 24.1182C19.3914 23.6663 18.8642 23.0241 18.553 22.2727C18.2418 21.5213 18.1604 20.6946 18.3191 19.897C18.4778 19.0993 18.8693 18.3666 19.4443 17.7915C20.0194 17.2164 20.7522 16.8247 21.5498 16.666C22.3475 16.5074 23.1744 16.5889 23.9258 16.9001C24.6772 17.2114 25.3192 17.7383 25.771 18.4146C26.2228 19.0908 26.4641 19.8859 26.4641 20.6992C26.4641 21.2396 26.3575 21.7745 26.1506 22.2737C25.9437 22.7728 25.6406 23.2263 25.2583 23.6082C24.876 23.99 24.4222 24.2929 23.9229 24.4993C23.4235 24.7057 22.8885 24.8116 22.3481 24.811H22.3521Z" fill="#79CCC9"/>
<path d="M39.4722 5.04321V2.15601C39.4621 1.7708 39.3021 1.40489 39.0261 1.13599C38.7501 0.867081 38.38 0.716553 37.9946 0.716553C37.6093 0.716553 37.2391 0.867081 36.9631 1.13599C36.6871 1.40489 36.5271 1.7708 36.5171 2.15601V5.04004C35.2215 5.36369 34.0714 6.11134 33.2495 7.16382C32.4276 8.21629 31.9812 9.51326 31.9812 10.8486C31.9812 12.184 32.4276 13.481 33.2495 14.5334C34.0714 15.5859 35.2215 16.3333 36.5171 16.657V29.103C36.5271 29.4882 36.6871 29.8544 36.9631 30.1233C37.2391 30.3922 37.6093 30.5427 37.9946 30.5427C38.38 30.5427 38.7501 30.3922 39.0261 30.1233C39.3021 29.8544 39.4621 29.4882 39.4722 29.103V16.656C40.7677 16.3324 41.9178 15.5849 42.7397 14.5325C43.5616 13.48 44.0081 12.183 44.0081 10.8477C44.0081 9.51228 43.5616 8.21507 42.7397 7.1626C41.9178 6.11012 40.7677 5.36271 39.4722 5.03906V5.04321ZM37.9941 14.9641C37.1809 14.9641 36.3857 14.7228 35.7095 14.271C35.0333 13.8192 34.5063 13.1772 34.1951 12.4258C33.8838 11.6744 33.8025 10.8475 33.9612 10.0498C34.1198 9.25215 34.5114 8.51965 35.0864 7.94458C35.6615 7.36951 36.3942 6.97775 37.1919 6.81909C37.9895 6.66043 38.8163 6.742 39.5676 7.05322C40.319 7.36445 40.9613 7.89141 41.4131 8.56763C41.8649 9.24384 42.106 10.0388 42.106 10.8521C42.106 11.392 41.9996 11.9269 41.793 12.4258C41.5863 12.9247 41.2834 13.3779 40.9016 13.7598C40.5198 14.1416 40.0665 14.4445 39.5676 14.6511C39.0687 14.8578 38.5341 14.9641 37.9941 14.9641V14.9641Z" fill="#79CCC9"/>
</svg>
