<svg width="36" height="35" viewBox="0 0 36 35" fill="none" xmlns="http://www.w3.org/2000/svg">
<path d="M28.6841 10.083H32.7329C32.9757 10.0887 33.2174 10.0455 33.4434 9.95654C33.6693 9.86756 33.8751 9.73465 34.0488 9.56494C34.2226 9.39524 34.3608 9.19258 34.4551 8.96875C34.5493 8.74492 34.5977 8.50409 34.5977 8.26123C34.5977 8.01837 34.5493 7.77803 34.4551 7.5542C34.3608 7.33037 34.2226 7.12771 34.0488 6.95801C33.8751 6.7883 33.6693 6.6549 33.4434 6.56592C33.2174 6.47694 32.9757 6.43425 32.7329 6.43994H28.6841C28.2855 4.8427 27.3642 3.42453 26.0669 2.41113C24.7696 1.39774 23.1706 0.847168 21.5244 0.847168C19.8782 0.847168 18.2793 1.39774 16.9819 2.41113C15.6846 3.42453 14.7638 4.8427 14.3652 6.43994H4.354C3.87104 6.43994 3.40791 6.63164 3.06641 6.97314C2.7249 7.31465 2.5332 7.77778 2.5332 8.26074C2.5332 8.7437 2.7249 9.20732 3.06641 9.54883C3.40791 9.89033 3.87104 10.082 4.354 10.082H14.3652C14.7645 11.6786 15.6857 13.0956 16.9829 14.1084C18.2801 15.1212 19.8787 15.6714 21.5244 15.6714C23.1702 15.6714 24.7687 15.1212 26.0659 14.1084C27.3631 13.0956 28.2848 11.6786 28.6841 10.082V10.083ZM17.626 8.26074C17.626 7.4894 17.8547 6.73559 18.2832 6.09424C18.7117 5.45289 19.3211 4.9529 20.0337 4.65771C20.7463 4.36253 21.5306 4.28555 22.2871 4.43604C23.0436 4.58652 23.7383 4.95799 24.2837 5.50342C24.8291 6.04884 25.2006 6.74347 25.3511 7.5C25.5016 8.25653 25.4246 9.04079 25.1294 9.75342C24.8342 10.4661 24.3342 11.0754 23.6929 11.5039C23.0515 11.9324 22.2972 12.1611 21.5259 12.1611C20.4915 12.1611 19.4999 11.7499 18.7686 11.0186C18.0372 10.2872 17.626 9.29509 17.626 8.26074Z" fill="#79CCC9"/>
<path d="M19.6841 28.603H33.9072C34.15 28.6087 34.3912 28.5655 34.6172 28.4766C34.8432 28.3876 35.0494 28.2547 35.2231 28.085C35.3969 27.9153 35.5347 27.7126 35.6289 27.4888C35.7232 27.2649 35.772 27.0241 35.772 26.7812C35.772 26.5384 35.7232 26.298 35.6289 26.0742C35.5347 25.8504 35.3969 25.6477 35.2231 25.478C35.0494 25.3083 34.8432 25.1749 34.6172 25.0859C34.3912 24.997 34.15 24.9543 33.9072 24.96H19.6841C19.2855 23.3627 18.3642 21.9445 17.0669 20.9312C15.7696 19.9178 14.1706 19.3672 12.5244 19.3672C10.8782 19.3672 9.27925 19.9178 7.98193 20.9312C6.68462 21.9445 5.76377 23.3627 5.36523 24.96H2.16504C1.68934 24.9711 1.2368 25.1679 0.904297 25.5083C0.571797 25.8487 0.385742 26.3054 0.385742 26.7812C0.385742 27.2571 0.571797 27.7143 0.904297 28.0547C1.2368 28.3951 1.68934 28.5919 2.16504 28.603H5.36523C5.76452 30.1996 6.68568 31.6166 7.98291 32.6294C9.28014 33.6422 10.8787 34.1924 12.5244 34.1924C14.1702 34.1924 15.7687 33.6422 17.0659 32.6294C18.3631 31.6166 19.2848 30.1996 19.6841 28.603ZM8.38428 26.7808C8.38428 25.9626 8.62652 25.1627 9.08105 24.4824C9.53559 23.8021 10.1816 23.2721 10.9375 22.959C11.6934 22.6458 12.5252 22.5636 13.3276 22.7231C14.1301 22.8827 14.8672 23.277 15.4458 23.8555C16.0244 24.4339 16.4189 25.1707 16.5786 25.9731C16.7384 26.7756 16.6562 27.6073 16.3433 28.3633C16.0303 29.1192 15.5005 29.7655 14.8203 30.2202C14.1401 30.6749 13.3402 30.9178 12.522 30.918C11.4252 30.9172 10.3735 30.4808 9.59814 29.7051C8.8228 28.9294 8.38747 27.8775 8.38721 26.7808H8.38428Z" fill="#79CCC9"/>
</svg>
