<svg width="34" height="33" viewBox="0 0 34 33" fill="none" xmlns="http://www.w3.org/2000/svg">
<path d="M32.2559 12.2002C33.0012 12.3189 33.374 12.6245 33.374 13.1172C33.3331 13.4921 33.1467 13.8361 32.855 14.0752L25.6123 21.1392L27.3281 31.1157C27.3436 31.2485 27.3503 31.3825 27.3481 31.5161C27.3559 31.7685 27.2823 32.0168 27.1382 32.2241C27.0691 32.3194 26.9773 32.3956 26.8711 32.4463C26.7649 32.4969 26.6478 32.5204 26.5303 32.5142C26.2472 32.5057 25.971 32.4227 25.73 32.2739L16.771 27.5649L7.81201 32.2739C7.56957 32.4195 7.29473 32.5022 7.01221 32.5142C6.89149 32.5221 6.77051 32.4994 6.66064 32.4487C6.55078 32.3981 6.45562 32.3211 6.3833 32.2241C6.23925 32.0168 6.16597 31.7685 6.17432 31.5161C6.17898 31.3821 6.19189 31.2481 6.21387 31.1157L7.93018 21.1392L0.666016 14.0752C0.387853 13.8277 0.209981 13.4869 0.166016 13.1172C0.166016 12.6252 0.538846 12.3195 1.28418 12.2002L11.3013 10.7432L15.79 1.66406C16.0427 1.1194 16.3687 0.846859 16.7681 0.846193C17.1674 0.845526 17.4934 1.11806 17.7461 1.66406L22.2358 10.7432L32.252 12.2002H32.2559Z" fill="#78CDC8"/>
</svg>
