<svg width="33" height="32" viewBox="0 0 33 32" fill="none" xmlns="http://www.w3.org/2000/svg">
<path d="M16.2251 0.00500488C13.0863 0.00500488 10.018 0.935747 7.40822 2.67957C4.79841 4.42338 2.76417 6.90189 1.56301 9.80176C0.361843 12.7016 0.0475824 15.8926 0.65993 18.9711C1.27228 22.0495 2.78373 24.8773 5.00319 27.0968C7.22265 29.3163 10.0504 30.8277 13.1289 31.4401C16.2074 32.0524 19.3982 31.7381 22.2981 30.537C25.198 29.3358 27.6766 27.3017 29.4204 24.6919C31.1642 22.0821 32.095 19.0138 32.095 15.875C32.0951 13.791 31.6847 11.7274 30.8872 9.802C30.0898 7.87663 28.9209 6.12716 27.4473 4.65356C25.9737 3.17997 24.2245 2.01107 22.2991 1.21362C20.3737 0.416178 18.3101 0.00585011 16.2261 0.00598145L16.2251 0.00500488ZM8.26393 17.579C7.89764 17.579 7.53968 17.4703 7.23513 17.2668C6.93057 17.0633 6.69317 16.7741 6.553 16.4357C6.41282 16.0973 6.37607 15.725 6.44753 15.3657C6.51899 15.0065 6.69536 14.6764 6.95436 14.4174C7.21337 14.1584 7.54335 13.982 7.90261 13.9105C8.26186 13.8391 8.63427 13.8758 8.97267 14.016C9.31108 14.1562 9.60047 14.3934 9.80397 14.698C10.0075 15.0026 10.116 15.3606 10.116 15.7269C10.1157 16.218 9.92052 16.689 9.57326 17.0363C9.226 17.3835 8.75503 17.5787 8.26393 17.579ZM16.0891 17.579C15.7228 17.579 15.3646 17.4703 15.0601 17.2668C14.7555 17.0633 14.5181 16.7741 14.3779 16.4357C14.2378 16.0973 14.2013 15.725 14.2727 15.3657C14.3442 15.0065 14.5206 14.6764 14.7796 14.4174C15.0386 14.1584 15.3685 13.982 15.7278 13.9105C16.0871 13.8391 16.4595 13.8758 16.7979 14.016C17.1363 14.1562 17.4254 14.3934 17.6289 14.698C17.8324 15.0026 17.9409 15.3606 17.9409 15.7269C17.9407 16.218 17.7455 16.689 17.3982 17.0363C17.051 17.3835 16.5802 17.5787 16.0891 17.579ZM23.9141 17.579C23.5478 17.5792 23.1897 17.4708 22.885 17.2675C22.5804 17.0641 22.3428 16.775 22.2024 16.4366C22.0621 16.0983 22.0252 15.726 22.0965 15.3667C22.1677 15.0074 22.3439 14.6772 22.6028 14.4181C22.8617 14.1589 23.1916 13.9824 23.5508 13.9108C23.91 13.8391 24.2824 13.8755 24.6209 14.0155C24.9594 14.1555 25.2487 14.3928 25.4524 14.6973C25.6561 15.0017 25.7647 15.3597 25.7649 15.726C25.7649 16.2164 25.5703 16.687 25.2239 17.0342C24.8774 17.3814 24.4075 17.5769 23.917 17.578L23.9141 17.579Z" fill="#95E0DB"/>
</svg>
