<svg width="34" height="34" viewBox="0 0 34 34" fill="none" xmlns="http://www.w3.org/2000/svg">
<path d="M17.2843 0.53418C14.0616 0.533982 10.9112 1.4895 8.23153 3.27979C5.55186 5.07007 3.46298 7.61448 2.22957 10.5918C0.996166 13.5691 0.673733 16.8456 1.30233 20.0063C1.93092 23.1671 3.48259 26.0708 5.76131 28.3496C8.04003 30.6285 10.9433 32.1803 14.1041 32.8091C17.2648 33.4379 20.5408 33.1151 23.5181 31.8818C26.4955 30.6486 29.0407 28.5604 30.8311 25.8809C32.6216 23.2013 33.5772 20.0508 33.5772 16.8281C33.5772 12.5071 31.8606 8.36312 28.8053 5.30762C25.7499 2.25212 21.6062 0.535421 17.2852 0.535156L17.2843 0.53418ZM9.10994 18.5781C8.73416 18.5781 8.36722 18.4666 8.05477 18.2578C7.74232 18.049 7.49838 17.7525 7.35457 17.4053C7.21077 17.0581 7.17335 16.6762 7.24666 16.3076C7.31998 15.9391 7.50096 15.6002 7.76668 15.3345C8.0324 15.0688 8.37078 14.8878 8.73934 14.8145C9.1079 14.7411 9.4903 14.779 9.83748 14.9229C10.1847 15.0667 10.4812 15.3101 10.69 15.6226C10.8988 15.935 11.0103 16.3024 11.0103 16.6782C11.0103 17.1821 10.81 17.6652 10.4537 18.0215C10.0974 18.3778 9.61386 18.5781 9.10994 18.5781ZM17.1441 18.5781C16.7683 18.5781 16.4009 18.4666 16.0885 18.2578C15.776 18.049 15.5326 17.7525 15.3888 17.4053C15.2449 17.0581 15.2075 16.6762 15.2808 16.3076C15.3542 15.9391 15.5351 15.6002 15.8009 15.3345C16.0666 15.0688 16.405 14.8878 16.7735 14.8145C17.1421 14.7411 17.524 14.779 17.8712 14.9229C18.2184 15.0667 18.5149 15.3101 18.7237 15.6226C18.9325 15.935 19.044 16.3024 19.044 16.6782C19.044 17.1821 18.8442 17.6652 18.4879 18.0215C18.1316 18.3778 17.648 18.5781 17.1441 18.5781ZM25.1783 18.5781C24.8025 18.5781 24.4351 18.4666 24.1226 18.2578C23.8102 18.049 23.5667 17.7525 23.4229 17.4053C23.2791 17.0581 23.2412 16.6762 23.3145 16.3076C23.3878 15.9391 23.5688 15.6002 23.8346 15.3345C24.1003 15.0688 24.4391 14.8878 24.8077 14.8145C25.1763 14.7411 25.5582 14.779 25.9054 14.9229C26.2525 15.0667 26.5491 15.3101 26.7579 15.6226C26.9667 15.935 27.0782 16.3024 27.0782 16.6782C27.0782 17.1821 26.8779 17.6652 26.5216 18.0215C26.1652 18.3778 25.6822 18.5781 25.1783 18.5781Z" fill="#265198"/>
</svg>
