<svg width="23" height="23" viewBox="0 0 23 23" fill="none" xmlns="http://www.w3.org/2000/svg">
<path d="M11.7348 0.583984C9.52972 0.583984 7.37438 1.23782 5.54093 2.46289C3.70749 3.68796 2.27833 5.42958 1.43449 7.4668C0.590646 9.50401 0.370023 11.7455 0.80021 13.9082C1.2304 16.0709 2.29226 18.0575 3.85148 19.6167C5.4107 21.1759 7.39728 22.2378 9.55998 22.668C11.7227 23.0982 13.9642 22.8775 16.0014 22.0337C18.0386 21.1898 19.7797 19.7607 21.0048 17.9272C22.2299 16.0938 22.8842 13.9385 22.8842 11.7334C22.8843 10.2693 22.5958 8.81903 22.0356 7.46631C21.4753 6.11359 20.6539 4.88443 19.6186 3.84912C18.5833 2.81381 17.3546 1.99286 16.0019 1.43262C14.6492 0.872374 13.1989 0.583853 11.7348 0.583984ZM18.7138 13.7261H11.4711C11.2206 13.7195 10.9817 13.6173 10.8041 13.4404C10.6265 13.2636 10.5236 13.0259 10.516 12.7754V5.68408C10.516 5.43849 10.6134 5.20296 10.787 5.0293C10.9607 4.85564 11.1962 4.7583 11.4418 4.7583C11.6874 4.7583 11.9229 4.85564 12.0966 5.0293C12.2703 5.20296 12.3681 5.43849 12.3681 5.68408V11.874H18.7138C18.9594 11.874 19.1949 11.9718 19.3686 12.1455C19.5422 12.3192 19.6401 12.5547 19.6401 12.8003C19.6401 13.0459 19.5422 13.2814 19.3686 13.4551C19.1949 13.6287 18.9594 13.7261 18.7138 13.7261Z" fill="#265198"/>
</svg>
