<svg width="25" height="25" viewBox="0 0 25 25" fill="none" xmlns="http://www.w3.org/2000/svg">
<path d="M12.3496 8.84424C11.7562 8.84424 11.1764 9.01997 10.6831 9.34961C10.1897 9.67925 9.80517 10.1481 9.57811 10.6963C9.35104 11.2445 9.29145 11.8477 9.40721 12.4297C9.52296 13.0116 9.80894 13.5458 10.2285 13.9653C10.6481 14.3849 11.1827 14.6709 11.7646 14.7866C12.3466 14.9024 12.9499 14.8428 13.498 14.6157C14.0462 14.3887 14.5146 14.0041 14.8442 13.5107C15.1739 13.0174 15.3496 12.4376 15.3496 11.8442C15.3496 11.0486 15.0338 10.2853 14.4712 9.72266C13.9086 9.16005 13.1452 8.84424 12.3496 8.84424Z" fill="#265198"/>
<path d="M12.3772 0.0351563C9.9911 0.0349585 7.65858 0.742382 5.67454 2.06787C3.69049 3.39336 2.14394 5.27754 1.23069 7.48193C0.317441 9.68632 0.0782987 12.1119 0.543678 14.4521C1.00906 16.7924 2.15781 18.9421 3.84495 20.6294C5.53209 22.3167 7.68198 23.4656 10.0222 23.9312C12.3624 24.3967 14.7879 24.1582 16.9924 23.2451C19.1969 22.3321 21.0813 20.7857 22.407 18.8018C23.7326 16.8178 24.4402 14.4852 24.4402 12.0991C24.4402 8.89972 23.1692 5.83126 20.907 3.56885C18.6447 1.30644 15.5766 0.0354215 12.3772 0.0351563ZM18.2273 16.8042H6.14426C5.86176 16.8027 5.58451 16.7263 5.34104 16.583C5.09757 16.4397 4.89649 16.2345 4.75803 15.9883C4.61957 15.742 4.5484 15.4636 4.55247 15.1812C4.55653 14.8987 4.63549 14.6225 4.78098 14.3804L10.823 4.44824C10.9651 4.21418 11.1654 4.02052 11.404 3.88623C11.6427 3.75194 11.9119 3.68164 12.1858 3.68164C12.4596 3.68164 12.7284 3.75194 12.967 3.88623C13.2057 4.02052 13.4059 4.21418 13.5481 4.44824L19.5901 14.3804C19.7356 14.6225 19.8145 14.8987 19.8186 15.1812C19.8226 15.4636 19.7515 15.742 19.613 15.9883C19.4746 16.2345 19.2735 16.4397 19.03 16.583C18.7865 16.7263 18.5098 16.8027 18.2273 16.8042Z" fill="#265198"/>
</svg>
