<svg width="34" height="40" viewBox="0 0 34 40" fill="none" xmlns="http://www.w3.org/2000/svg">
<path d="M15.591 13.971C19.346 13.971 22.39 10.927 22.39 7.17205C22.39 3.41706 19.346 0.373047 15.591 0.373047C11.836 0.373047 8.79199 3.41706 8.79199 7.17205C8.79199 10.927 11.836 13.971 15.591 13.971Z" fill="#83DBD4"/>
<path d="M32.822 20.7451L29.782 17.7021C29.5945 17.5147 29.3403 17.4094 29.0751 17.4094C28.8099 17.4094 28.5556 17.5147 28.3681 17.7021L13.7221 32.3262L11.7991 37.8672C11.7348 38.0526 11.7265 38.2528 11.7752 38.4429C11.8239 38.633 11.9274 38.8046 12.0729 38.9363C12.2184 39.0679 12.3995 39.1538 12.5935 39.1833C12.7875 39.2129 12.986 39.1845 13.1641 39.1021L18.173 36.7842L23.245 31.7212H29.6851C29.9524 31.718 30.2077 31.6092 30.395 31.4185C30.5824 31.2277 30.6867 30.9705 30.6851 30.7031C30.6843 30.6586 30.6809 30.6142 30.6751 30.5701C30.4513 28.9041 29.9458 27.2884 29.1801 25.792L32.819 22.1592C33.0069 21.9721 33.1127 21.7178 33.1133 21.4526C33.1139 21.1875 33.0091 20.933 32.822 20.7451V20.7451Z" fill="#83DBD4"/>
<path d="M23.6431 19.8263C21.2049 18.386 18.4228 17.6313 15.5911 17.6422C7.75206 17.6422 1.30799 22.9032 0.390991 31.7252H11.717L23.6431 19.8263Z" fill="#83DBD4"/>
</svg>
