<svg width="59" height="28" viewBox="0 0 59 28" fill="none" xmlns="http://www.w3.org/2000/svg">
<path d="M43.7949 7.46973C40.9208 7.49949 38.0932 8.19915 35.5366 9.5127C32.98 10.8262 30.7647 12.7179 29.0669 15.0371C28.7711 15.4267 28.6113 15.9024 28.6113 16.3916C28.6113 16.8808 28.7711 17.3565 29.0669 17.7461C30.7439 20.0868 32.9548 21.9938 35.5161 23.3096C38.0774 24.6253 40.9154 25.312 43.7949 25.312C46.6744 25.312 49.5124 24.6253 52.0737 23.3096C54.635 21.9938 56.8459 20.0868 58.5229 17.7461C58.8188 17.3563 58.979 16.8805 58.979 16.3911C58.979 15.9018 58.8188 15.4259 58.5229 15.0361C56.8248 12.7172 54.6098 10.826 52.0532 9.5127C49.4967 8.19935 46.6689 7.4996 43.7949 7.46973Z" fill="#78CDC8"/>
<path d="M19.0479 8.80615L11.606 0.938965C11.4348 0.757489 11.2286 0.612983 10.9995 0.51416C10.7705 0.415338 10.5234 0.364258 10.2739 0.364258C10.0245 0.364258 9.77788 0.415338 9.54883 0.51416C9.31978 0.612983 9.11306 0.757489 8.94189 0.938965L1.49219 8.85693C1.07913 9.296 0.849092 9.87618 0.849121 10.479V25.0898C0.849121 25.3797 0.906178 25.6668 1.01709 25.9346C1.128 26.2023 1.29067 26.4455 1.49561 26.6504C1.70054 26.8553 1.94366 27.018 2.21143 27.1289C2.47919 27.2398 2.76632 27.2969 3.05615 27.2969H17.4883C18.0736 27.2969 18.6349 27.0643 19.0488 26.6504C19.4627 26.2365 19.6953 25.6752 19.6953 25.0898V10.4287C19.694 9.82509 19.4622 9.24512 19.0479 8.80615ZM10.1221 7.36475C9.76231 7.36475 9.41046 7.25847 9.11133 7.05859C8.8122 6.85872 8.57908 6.57457 8.44141 6.24219C8.30373 5.90981 8.2677 5.54377 8.33789 5.19092C8.40808 4.83807 8.58155 4.51416 8.83594 4.25977C9.09033 4.00537 9.41424 3.83191 9.76709 3.76172C10.1199 3.69153 10.486 3.72756 10.8184 3.86523C11.1507 4.00291 11.4344 4.23602 11.6343 4.53516C11.8342 4.83429 11.9409 5.18613 11.9409 5.5459C11.941 5.78481 11.8941 6.02144 11.8027 6.24219C11.7114 6.46294 11.5776 6.66358 11.4087 6.83252C11.2398 7.00146 11.0391 7.1352 10.8184 7.22656C10.5976 7.31793 10.361 7.36488 10.1221 7.36475Z" fill="#78CDC8"/>
</svg>
