<svg width="35" height="33" viewBox="0 0 35 33" fill="none" xmlns="http://www.w3.org/2000/svg">
<path d="M11.2492 0.900879H1.98916C0.955839 0.900879 0.118164 1.73855 0.118164 2.77188V12.0319C0.118164 13.0652 0.955839 13.9029 1.98916 13.9029H11.2492C12.2825 13.9029 13.1202 13.0652 13.1202 12.0319V2.77188C13.1202 1.73855 12.2825 0.900879 11.2492 0.900879Z" fill="#79CCC9"/>
<path d="M11.2492 19.103H1.98916C0.955839 19.103 0.118164 19.9407 0.118164 20.974V30.234C0.118164 31.2674 0.955839 32.105 1.98916 32.105H11.2492C12.2825 32.105 13.1202 31.2674 13.1202 30.234V20.974C13.1202 19.9407 12.2825 19.103 11.2492 19.103Z" fill="#79CCC9"/>
<path d="M29.9103 19.103H20.6503C19.617 19.103 18.7793 19.9407 18.7793 20.974V30.234C18.7793 31.2674 19.617 32.105 20.6503 32.105H29.9103C30.9436 32.105 31.7813 31.2674 31.7813 30.234V20.974C31.7813 19.9407 30.9436 19.103 29.9103 19.103Z" fill="#79CCC9"/>
<path d="M25.355 2.34619C23.7031 2.36326 22.0778 2.76508 20.6084 3.52002C19.139 4.27495 17.866 5.36184 16.8901 6.69482C16.7199 6.91865 16.6274 7.19242 16.6274 7.47363C16.6274 7.75484 16.7199 8.02812 16.8901 8.25195C17.8541 9.59738 19.125 10.6939 20.5972 11.4502C22.0694 12.2065 23.7004 12.6006 25.3555 12.6006C27.0106 12.6006 28.642 12.2065 30.1143 11.4502C31.5865 10.6939 32.8573 9.59738 33.8213 8.25195C33.9909 8.02786 34.0825 7.75468 34.0825 7.47363C34.0825 7.19259 33.9909 6.91892 33.8213 6.69482C32.8451 5.36199 31.5716 4.27493 30.1021 3.52002C28.6325 2.76511 27.007 2.36349 25.355 2.34619V2.34619Z" fill="#78CDC8"/>
</svg>
