<svg width="69" height="35" viewBox="0 0 69 35" fill="none" xmlns="http://www.w3.org/2000/svg">
<path d="M54.8169 9.31201C52.1591 9.34018 49.5446 9.98753 47.1807 11.2026C44.8168 12.4177 42.7689 14.1671 41.1992 16.312C40.9268 16.6718 40.7793 17.1107 40.7793 17.562C40.7793 18.0133 40.9268 18.4522 41.1992 18.812C42.7498 20.9764 44.7938 22.7399 47.1621 23.9565C49.5304 25.1732 52.1544 25.8081 54.8169 25.8081C57.4794 25.8081 60.1039 25.1732 62.4722 23.9565C64.8404 22.7399 66.8845 20.9764 68.4351 18.812C68.7074 18.4522 68.855 18.0133 68.855 17.562C68.855 17.1107 68.7074 16.6718 68.4351 16.312C66.8653 14.1671 64.817 12.4177 62.4531 11.2026C60.0892 9.98753 57.4747 9.34018 54.8169 9.31201Z" fill="#78CDC8"/>
<path d="M32.5122 18.096C32.4009 17.7521 32.4009 17.3818 32.5122 17.0379L34.1699 11.9178C34.2956 11.5293 34.2788 11.1089 34.1225 10.7317C33.9662 10.3546 33.6805 10.0453 33.3168 9.85965L28.5239 7.41092C28.2024 7.24607 27.9407 6.98439 27.7758 6.66287L25.3281 1.87088C25.1426 1.50709 24.8337 1.22107 24.4565 1.06472C24.0793 0.908378 23.6584 0.891926 23.27 1.01785L18.1489 2.67556C17.8054 2.78698 17.4358 2.78698 17.0922 2.67556L11.9721 1.01785C11.5836 0.891867 11.1625 0.908384 10.7851 1.06472C10.4077 1.22106 10.0987 1.50701 9.91304 1.87088L7.4648 6.66287C7.30045 6.98475 7.03912 7.24657 6.71724 7.41092L1.92427 9.85965C1.56063 10.0453 1.27493 10.3546 1.11861 10.7317C0.96228 11.1089 0.945528 11.5293 1.07124 11.9178L2.72896 17.0379C2.83978 17.3818 2.83978 17.752 2.72896 18.096L1.07124 23.2156C0.945679 23.6042 0.962307 24.0248 1.11861 24.4021C1.2749 24.7794 1.56069 25.0887 1.92427 25.2747L6.71724 27.7229C7.03904 27.8874 7.30034 28.1492 7.4648 28.471L9.91304 33.2639C10.099 33.6275 10.4083 33.9125 10.7856 34.0686C11.1629 34.2248 11.5837 34.2414 11.9721 34.1155L17.0922 32.4588C17.4357 32.3469 17.8054 32.3469 18.1489 32.4588L23.27 34.1155C23.6583 34.2411 24.0789 34.2247 24.456 34.0686C24.8331 33.9125 25.1421 33.6273 25.3281 33.2639L27.7758 28.471C27.9408 28.1495 28.2024 27.8879 28.5239 27.7229L33.3168 25.2747C33.6806 25.0889 33.9662 24.7795 34.1225 24.4021C34.2788 24.0248 34.2956 23.6042 34.1699 23.2156L32.5122 18.096ZM8.59224 11.5569C8.59224 10.9891 8.76017 10.4338 9.07564 9.9617C9.39111 9.48956 9.8396 9.12138 10.3642 8.90408C10.8888 8.68678 11.466 8.63022 12.0229 8.74099C12.5798 8.85177 13.0916 9.12512 13.4931 9.52664C13.8946 9.92815 14.168 10.4399 14.2788 10.9969C14.3895 11.5538 14.333 12.1309 14.1157 12.6555C13.8984 13.1802 13.5302 13.6286 13.0581 13.9441C12.5859 14.2596 12.0307 14.4275 11.4628 14.4275C10.7015 14.4273 9.97142 14.1251 9.43306 13.5867C8.8947 13.0483 8.5925 12.3183 8.59224 11.5569ZM13.875 25.0677C13.5842 25.36 13.1896 25.5256 12.7773 25.5276C12.365 25.5297 11.9689 25.3683 11.6752 25.0789L10.4169 23.8338C10.1242 23.5433 9.95875 23.1485 9.9565 22.7361C9.95425 22.3237 10.1157 21.9272 10.4052 21.6336L21.625 10.2976C21.9155 10.005 22.3102 9.83974 22.7226 9.83767C23.135 9.83561 23.5317 9.99719 23.8251 10.2869L25.083 11.5315C25.3753 11.8222 25.5409 12.2174 25.5429 12.6297C25.545 13.042 25.3837 13.4381 25.0942 13.7317L13.875 25.0677ZM23.289 26.9827C22.721 26.9827 22.1656 26.8144 21.6933 26.4988C21.221 26.1832 20.8531 25.7345 20.6357 25.2097C20.4183 24.685 20.3613 24.1077 20.4721 23.5506C20.5829 22.9935 20.8566 22.4815 21.2583 22.0799C21.6599 21.6782 22.1718 21.4045 22.729 21.2937C23.2861 21.1829 23.8633 21.2399 24.3881 21.4573C24.9129 21.6747 25.3616 22.0426 25.6772 22.5149C25.9928 22.9872 26.1611 23.5426 26.1611 24.1106C26.1611 24.8723 25.8584 25.6028 25.3198 26.1414C24.7812 26.68 24.0507 26.9827 23.289 26.9827Z" fill="#78CDC8"/>
</svg>
