<svg width="52" height="34" viewBox="0 0 52 34" fill="none" xmlns="http://www.w3.org/2000/svg">
<path d="M48.9839 11.6611H35.0093C34.2341 11.6611 33.4906 11.9689 32.9424 12.5171C32.3942 13.0653 32.0859 13.8088 32.0859 14.584V23.3311H30.0942V12.8447C30.0942 11.9356 30.4553 11.0638 31.0981 10.4209C31.741 9.77802 32.6128 9.41699 33.522 9.41699H47.001V5.57275C47.001 4.2785 46.487 3.03725 45.5718 2.12207C44.6566 1.20689 43.4154 0.692871 42.1211 0.692871H5.21387C3.91961 0.692871 2.67836 1.20689 1.76318 2.12207C0.848006 3.03725 0.333984 4.2785 0.333984 5.57275V29.0728C0.333984 30.367 0.848006 31.6083 1.76318 32.5234C2.67836 33.4386 3.91961 33.9531 5.21387 33.9531H42.1211C43.4154 33.9531 44.6566 33.4386 45.5718 32.5234C46.487 31.6083 47.001 30.367 47.001 29.0728V23.4048H48.9819C49.7572 23.4048 50.5007 23.097 51.0488 22.5488C51.597 22.0007 51.9053 21.2572 51.9053 20.4819V14.582C51.9047 13.8075 51.5965 13.0648 51.0488 12.5171C50.5011 11.9694 49.7584 11.6617 48.9839 11.6611ZM38.1841 15.394C38.6321 15.394 39.0699 15.527 39.4424 15.7759C39.8149 16.0248 40.1054 16.3781 40.2769 16.792C40.4483 17.2059 40.4932 17.6617 40.4058 18.1011C40.3184 18.5404 40.1024 18.944 39.7856 19.2607C39.4689 19.5775 39.0653 19.793 38.626 19.8804C38.1866 19.9678 37.7313 19.9229 37.3174 19.7515C36.9035 19.58 36.5497 19.29 36.3008 18.9175C36.0519 18.545 35.9189 18.1072 35.9189 17.6592C35.9189 17.0592 36.1572 16.4832 36.5811 16.0586C37.005 15.6339 37.5802 15.3951 38.1802 15.394H38.1841Z" fill="#78CDC8"/>
</svg>
